<?xml version="1.0" encoding="utf-8"?>
<!-- Generator: Adobe Illustrator 24.0.1, SVG Export Plug-In . SVG Version: 6.00 Build 0)  -->
<svg version="1.1" id="圖層_1" xmlns="http://www.w3.org/2000/svg" xmlns:xlink="http://www.w3.org/1999/xlink" x="0px" y="0px"
	 viewBox="0 0 432.8 115.1" style="enable-background:new 0 0 432.8 115.1;" xml:space="preserve">
<style type="text/css">
	.st0{fill:#ADAEAE;}
	.st1{fill:#636262;}
	.st2{fill:#F29600;}
	.st3{fill:#6EBE8A;}
	.st4{fill:none;}
	.st5{fill:#337DC0;}
	.st6{fill:#E95A46;}
	.st7{fill:#F5BC49;}
	.st8{fill:#814898;}
</style>
<g>
	<path class="st0" d="M141.1,95.9l-0.5-0.6l-18.2,1c-0.4,0-0.7-0.1-0.9-0.3c-0.2-0.2-0.3-0.5-0.3-0.8c0-0.5,0.3-0.8,0.8-1l1.3-0.1
		l1.9,0c1.1-1.8,2.2-3.8,3.3-6.3c0.2-0.4,0.4-0.8,0.6-1c0.2-0.2,0.5-0.3,0.8-0.3c0.7,0,1.1,0.3,1.1,1c0,0.4-0.6,1.7-1.9,3.8
		l-1.7,2.7c5.8-0.1,9.6-0.3,11.2-0.4l0.5,0c-1.2-1.3-2.1-2.2-2.7-2.6c-0.5-0.4-0.8-0.7-0.8-1.1c0-0.3,0.1-0.5,0.2-0.7
		c0.2-0.2,0.4-0.2,0.7-0.2c0.4,0,1.7,1,3.9,3.1c2.2,2.1,3.3,3.4,3.3,4c0,0.7-0.4,1-1.1,1C142.3,97.3,141.7,96.8,141.1,95.9z
		 M124.2,108.2c-0.4-0.4-0.6-1.1-0.6-2.1v-4.9c-0.1-1.9,0.8-2.8,2.7-2.7h12.3c2-0.1,2.9,0.8,2.7,2.7v4.9c0.1,1.9-0.8,2.8-2.7,2.7
		h-12.3C125.3,108.8,124.6,108.6,124.2,108.2z M139.3,105.6v-3.7c0-0.9-0.4-1.4-1.3-1.4h-10.9c-0.9,0-1.4,0.4-1.4,1.3v3.7
		c0,0.9,0.4,1.4,1.3,1.4h10.9C138.8,106.9,139.3,106.5,139.3,105.6z"/>
	<path class="st0" d="M148,95.8c-0.7-0.4-1.1-0.8-1.1-1.2c0-0.7,0.4-1.1,1.1-1.1c0.2,0,0.4,0.1,0.8,0.3l0.5,0.2
		c0.8,0.3,1.2,0.7,1.2,1.3c0,0.7-0.3,1.1-1,1.1C149.2,96.4,148.7,96.2,148,95.8z M147,107.8c0-0.1,0.1-0.4,0.2-0.7
		c0.9-2,1.6-4.2,2.2-6.4c0.2-0.7,0.5-1,1.1-1c0.7,0,1,0.4,1,1.1c0,0.4-0.4,1.8-1.1,4c-0.7,2.2-1.2,3.4-1.3,3.6
		c-0.2,0.3-0.5,0.5-0.9,0.5C147.4,108.9,147,108.6,147,107.8z M148.4,89.4c-0.7-0.4-1.1-0.8-1.1-1.2c0-0.7,0.4-1.1,1.1-1.1
		c0.1,0,0.3,0.1,0.7,0.2c0.5,0.2,1,0.4,1.3,0.7c0.3,0.3,0.5,0.5,0.5,0.8c0,0.7-0.3,1.1-1,1.1C149.6,89.9,149.1,89.7,148.4,89.4z
		 M153.5,98.1v-4l-2.1,0.2c-0.3,0-0.4,0-0.6-0.2s-0.2-0.3-0.2-0.6c0-0.5,0.5-0.7,1.5-0.7l0.8-1l-1.2-1c-0.3-0.3-0.5-0.4-0.7-0.6
		c-0.1-0.1-0.2-0.2-0.2-0.3c0-0.5,0.2-0.8,0.7-0.8c0.1,0,0.3,0.1,0.5,0.2c0.3-0.5,0.7-1.1,1.1-2c0.2-0.4,0.4-0.6,0.7-0.6
		c0.5,0,0.8,0.2,0.8,0.7c0,0.4-0.5,1.2-1.6,2.6l0.8,0.7l1.2-1.8c0.3-0.5,0.6-0.7,0.9-0.7c0.5,0,0.8,0.2,0.8,0.7
		c0,0.5-0.9,1.8-2.8,3.8l1.7-0.1c-0.2-0.3-0.3-0.6-0.3-0.7c0-0.4,0.2-0.5,0.7-0.5c0.2,0,0.5,0.3,0.9,1c0.4,0.8,0.7,1.3,0.7,1.4
		c0,0.2-0.1,0.4-0.2,0.5c-0.1,0.1-0.3,0.2-0.5,0.2c-0.3,0-0.6-0.2-0.8-0.7l-1,0.1v4.2c0,0.5-0.2,0.8-0.7,0.8
		C153.8,98.9,153.5,98.6,153.5,98.1z M150.9,97.7l0.1-0.4l0.4-1.7c0.1-0.3,0.2-0.6,0.3-0.7c0.1-0.2,0.3-0.2,0.5-0.2
		c0.5,0,0.7,0.2,0.7,0.6c0,0.5-0.1,1.3-0.4,2.4c-0.1,0.5-0.4,0.7-0.8,0.7C151.2,98.4,150.9,98.2,150.9,97.7z M162.9,108.6
		c0-0.6,0.4-1,1.2-1l1.5,0c1.1,0.1,1.7-0.4,1.7-1.3c0-0.2-0.1-0.3-0.4-0.3h-13.3c-1.1,0-1.6-0.4-1.6-1.3c0-0.3,0.1-0.9,0.4-1.8
		c0.2-0.8,0.8-1.1,1.6-1.1h12.2c0.2,0,0.3,0,0.3-0.1c0.1-0.1,0.1-0.2,0.1-0.5s0-0.4-0.1-0.4c-0.1-0.1-0.2-0.1-0.3-0.1H153
		c-0.6,0-0.9-0.3-0.9-0.8s0.3-0.8,0.9-0.8H167c1.1,0,1.6,0.5,1.6,1.5v1.2c0,1-0.5,1.5-1.6,1.5h-12.4c-0.4,0-0.5,0.3-0.5,0.9
		c0,0.2,0.1,0.3,0.4,0.3h13.3c1.1,0,1.6,0.4,1.6,1.3c0,1.3-0.3,2.3-0.9,2.8c-0.6,0.5-2.1,0.8-4.5,0.8
		C163.3,109.5,162.9,109.2,162.9,108.6z M155.8,97l-0.2-0.9l-0.1-0.5l-0.1-0.3c-0.1-0.2,0-0.3,0.1-0.4c0.1-0.1,0.3-0.2,0.6-0.2
		c0.3,0,0.6,0.4,0.8,1.1l0.4,1.5c0,0.5-0.2,0.7-0.7,0.7C156.3,98,156,97.7,155.8,97z M157,89.7c0-0.4,0.2-0.6,0.7-0.6h4.5
		c0.5,0,0.7,0.2,0.7,0.6c0,0.4-0.2,0.6-0.7,0.6h-4.5C157.2,90.3,157,90.1,157,89.7z M157.5,97.4v-1.3c0-0.4,0.1-0.7,0.4-0.9
		c0.2-0.2,0.6-0.3,1-0.3h2.2c0.4,0,0.8,0.1,1,0.3c0.2,0.2,0.4,0.5,0.4,0.9v1.3c0,0.4-0.1,0.7-0.4,0.9c-0.3,0.2-0.6,0.3-1,0.3H159
		C158.1,98.6,157.6,98.2,157.5,97.4z M157.6,87.6c0-0.2,0.1-0.3,0.2-0.4c0.1-0.1,0.3-0.2,0.5-0.2h3.6c0.5,0,0.7,0.2,0.7,0.6
		c0,0.4-0.2,0.6-0.6,0.6h-3.6C157.8,88.3,157.6,88.1,157.6,87.6z M157.6,91.6c0-0.4,0.2-0.6,0.7-0.6h3.6c0.5,0,0.7,0.2,0.7,0.6
		c0,0.4-0.2,0.6-0.6,0.6h-3.6C157.8,92.2,157.6,92,157.6,91.6z M157.6,93.6c0-0.4,0.2-0.6,0.7-0.6h3.6c0.5,0,0.7,0.2,0.7,0.6
		s-0.2,0.6-0.6,0.6h-3.6C157.8,94.2,157.6,94,157.6,93.6z M161.2,97.1v-0.7c0-0.2-0.1-0.3-0.4-0.3h-1.5c-0.3,0-0.4,0.1-0.4,0.3v0.7
		c0,0.2,0.1,0.3,0.4,0.3h1.5C161,97.3,161.2,97.3,161.2,97.1z M165.6,98.1v-4l-2.1,0.2c-0.3,0-0.4,0-0.6-0.2
		c-0.1-0.1-0.2-0.3-0.2-0.6c0-0.5,0.5-0.7,1.6-0.7l0.8-1l-1.4-1.1c-0.3-0.2-0.5-0.4-0.6-0.5c-0.1-0.1-0.2-0.2-0.2-0.3
		c0-0.5,0.2-0.8,0.7-0.8c0.2,0,0.3,0,0.5,0.2l1.1-2.1c0.2-0.3,0.4-0.4,0.6-0.4c0.5,0,0.8,0.2,0.8,0.7c0,0.3-0.5,1.1-1.5,2.6l0.8,0.7
		l1.2-1.8c0.2-0.3,0.3-0.4,0.5-0.6c0.1-0.1,0.3-0.2,0.4-0.2c0.5,0,0.8,0.2,0.8,0.7c0,0.6-0.9,1.8-2.8,3.8l1.8-0.1
		c-0.2-0.4-0.3-0.6-0.3-0.7c0-0.4,0.2-0.5,0.7-0.5c0.3,0,0.7,0.4,1,1.1c0.1,0.1,0.2,0.3,0.3,0.7c0.2,0.3,0.2,0.6,0.2,0.6
		c0,0.2-0.1,0.4-0.2,0.5c-0.1,0.1-0.3,0.2-0.5,0.2c-0.3,0-0.6-0.3-0.8-0.8l-1.2,0.2v4.2c0,0.5-0.2,0.8-0.7,0.8
		C165.9,98.9,165.6,98.6,165.6,98.1z M162.9,97.7l0.5-2.1c0.1-0.6,0.4-0.9,0.7-0.9c0.5,0,0.7,0.2,0.7,0.6c0,0.6-0.1,1.4-0.4,2.4
		c-0.1,0.5-0.4,0.7-0.8,0.7C163.2,98.4,162.9,98.2,162.9,97.7z M168.1,96.9l-0.4-1.7c0-0.2,0-0.3,0.2-0.4c0.1-0.1,0.3-0.2,0.6-0.2
		c0.3,0,0.6,0.4,0.8,1.1l0.4,1.5c0,0.5-0.3,0.7-0.8,0.7C168.5,98,168.2,97.7,168.1,96.9z"/>
	<path class="st0" d="M172.6,107.8c0-0.3,0.2-0.6,0.5-1c1.5-1.7,2.4-4,2.8-7c-1.3,1-2.1,1.5-2.4,1.5c-0.7,0-1-0.4-1-1.1
		c0-0.4,0.3-0.8,0.8-1c0.9-0.4,1.8-0.9,2.8-1.5v-6.6c0-1.6,0.8-2.4,2.4-2.4h5.6v-1.1c0-0.7,0.4-1.1,1.2-1.1c0.8,0,1.2,0.4,1.2,1.1
		v1.1h7.8c0.7,0,1.1,0.3,1.1,0.9c0,0.6-0.4,0.9-1.1,0.9h-15.5c-0.3,0-0.5,0.1-0.6,0.2c-0.1,0.1-0.2,0.4-0.2,0.7v2.7
		c0,3.3-0.2,6-0.7,8.2c-0.4,2-1.2,3.8-2.4,5.6c-0.2,0.3-0.4,0.6-0.7,0.7c-0.2,0.2-0.4,0.3-0.6,0.3
		C172.9,109,172.6,108.6,172.6,107.8z M173.7,95.3c-0.2-0.3-0.3-0.6-0.4-1.1l-0.6-2.3l-0.1-0.4c-0.1-0.3,0-0.4,0.2-0.6
		c0.2-0.1,0.4-0.2,0.7-0.2c0.4,0,0.6,0.2,0.8,0.5c0.2,0.4,0.4,1.4,0.8,2.9l0.1,0.5c0,0.6-0.3,1-1,1
		C174.1,95.7,173.9,95.5,173.7,95.3z M178.7,100.9v-1.4c0-1.2,0.6-1.8,1.7-1.8h3.6c1.1,0,1.7,0.6,1.7,1.8v1.4c0,1.2-0.6,1.8-1.7,1.8
		h-3.6C179.2,102.6,178.7,102.1,178.7,100.9z M178.9,106.6v-2.3c0-0.7,0.3-1,1-1c0.6,0,1,0.3,1,1v1.7c0,0.3,0.1,0.4,0.2,0.6
		c0.1,0.1,0.3,0.2,0.6,0.2h3.9v-3.2c0-0.8,0.3-1.2,1-1.2c0.6,0,0.9,0.4,0.9,1.2v3.2h4c0.5,0,0.8-0.3,0.8-0.8v-1.7c0-0.7,0.3-1,1-1
		s1,0.3,1,1v2.2c0,0.7-0.2,1.3-0.5,1.6c-0.3,0.3-0.9,0.5-1.6,0.5h-11.2C179.5,108.6,178.9,108,178.9,106.6z M184,100.5v-0.7
		c0-0.4-0.2-0.5-0.6-0.6h-2.5c-0.2,0-0.3,0-0.4,0.2c-0.1,0.1-0.1,0.2-0.1,0.4v0.7c0,0.4,0.2,0.6,0.5,0.6h2.5
		C183.8,101.1,184,100.9,184,100.5z M180.4,95v-1.4c0-1.2,0.6-1.8,1.8-1.8h8.5c1.2,0,1.8,0.6,1.8,1.7v1.4c0,1.2-0.6,1.8-1.8,1.8
		h-8.5C181,96.7,180.4,96.1,180.4,95z M190.5,94.5V94c0-0.4-0.2-0.6-0.6-0.6h-7c-0.2,0-0.3,0-0.4,0.1c-0.1,0.1-0.1,0.2-0.2,0.5v0.5
		c0,0.2,0,0.3,0.1,0.4s0.2,0.1,0.4,0.2h7C190.3,95.1,190.5,94.9,190.5,94.5z M187.3,100.9v-1.4c0-1.2,0.6-1.8,1.7-1.8h3.7
		c1.2,0,1.8,0.6,1.8,1.8v1.4c0,1.2-0.6,1.8-1.8,1.8H189C187.9,102.6,187.3,102.1,187.3,100.9z M192.7,100.5v-0.7
		c0-0.4-0.2-0.6-0.6-0.6h-2.5c-0.4,0-0.6,0.2-0.6,0.6v0.7c0,0.4,0.2,0.6,0.6,0.6h2.5C192.5,101.1,192.7,100.9,192.7,100.5z"/>
	<path class="st0" d="M198.3,107.8c0-0.3,0.2-0.6,0.5-1c1.6-1.9,2.5-4.2,2.9-7.1c-1.4,1.1-2.3,1.6-2.5,1.6c-0.7,0-1-0.4-1-1.1
		c0-0.5,0.3-0.8,0.8-1c0.8-0.3,1.7-0.8,2.9-1.5l0.1-6.2c0-0.7,0.2-1.3,0.6-1.7c0.4-0.4,1.1-0.6,1.9-0.6h5.4v-1.6
		c0-0.7,0.4-1.1,1.2-1.1c0.8,0,1.2,0.4,1.2,1.1v1.6h7.7c0.8,0,1.2,0.3,1.2,1c0,0.6-0.4,1-1.2,1h-15.2c-0.5,0-0.8,0.4-0.8,1.1v1.8
		c0,3.3-0.2,5.8-0.5,7.6c-0.3,1.8-0.9,3.5-1.8,5c-0.9,1.6-1.7,2.4-2.2,2.4C198.7,109,198.3,108.6,198.3,107.8z M199.1,94.2
		c-0.1-0.5-0.2-1.1-0.5-1.9l-0.2-0.9c-0.1-0.3,0-0.4,0.2-0.6c0.2-0.1,0.4-0.2,0.7-0.2c0.3,0,0.5,0.1,0.7,0.4c0.3,0.4,0.5,1.4,0.8,3
		l0.1,0.6c0,0.3,0,0.5-0.2,0.6c-0.2,0.1-0.4,0.2-0.7,0.2C199.6,95.6,199.3,95.1,199.1,94.2z M202.3,107.4c0-0.6,0.4-0.9,1.1-0.9h2.6
		v-6.9c0-0.8,0.3-1.3,1-1.3c0.7,0,1,0.4,1,1.3v6.9h3.7V96h-6.2c-0.7,0-1.1-0.3-1.1-1c0-0.6,0.4-0.9,1.1-0.9h13.8
		c0.7,0,1.1,0.3,1.1,1c0,0.6-0.4,0.9-1.1,0.9h-5.5v4.1h4.5c0.8,0,1.2,0.3,1.2,1c0,0.6-0.4,0.9-1.2,0.9h-4.5v4.4h6.2
		c0.8,0,1.2,0.3,1.2,1c0,0.6-0.4,0.9-1.2,0.9h-16.6C202.7,108.3,202.3,108,202.3,107.4z"/>
	<path class="st0" d="M229.2,108.4v-5.5c-0.6,1.2-1.4,2.3-2.4,3.2c-1,1-1.6,1.5-1.9,1.5c-0.6,0-0.9-0.4-0.9-1.1
		c0-0.2,0.1-0.4,0.3-0.6c0.2-0.2,0.5-0.5,0.8-0.8c1.8-1.5,3.1-2.9,3.9-4.3h-3.5c-0.8,0-1.1-0.3-1.1-0.9c0-0.6,0.4-0.9,1.1-0.9h3.8
		v-2.4h-4.1c-0.4,0-0.7-0.1-0.8-0.2c-0.2-0.1-0.3-0.4-0.3-0.7c0-0.6,0.4-0.9,1.1-0.9h1.6c-0.1-0.9-0.3-2-0.6-3.4l0-0.2h-0.9
		c-0.6,0-0.9-0.3-0.9-0.9c0-0.6,0.3-0.9,0.9-0.9h3.9v-1.4c0-0.9,0.4-1.3,1.1-1.3c0.7,0,1.1,0.4,1.1,1.3v1.4h3.9
		c0.6,0,0.9,0.3,0.9,0.9c0,0.6-0.3,0.9-0.9,0.9H234l-0.7,3.6h1.9c0.7,0,1.1,0.3,1.1,0.9c0,0.3-0.1,0.5-0.3,0.7
		c-0.2,0.1-0.5,0.2-0.8,0.2h-4.1V99h3.8c0.8,0,1.1,0.3,1.1,0.9c0,0.6-0.4,0.9-1.1,0.9h-3.8v1.8c0.2-0.3,0.5-0.5,0.9-0.5
		c0.3,0,0.8,0.3,1.7,1c0.8,0.6,1.3,1.1,1.3,1.5c0,0.6-0.3,0.9-0.9,0.9c-0.3,0-0.6-0.2-1-0.5l-1.9-1.7v5.1c0,0.8-0.3,1.2-1,1.2
		C229.5,109.6,229.2,109.2,229.2,108.4z M232.2,91.3v-0.1h-4.4c0.2,0.8,0.4,2,0.6,3.6v0h3.1L232.2,91.3z M242.2,108.3V96.8h-3.3
		l0,1.8c-0.1,3.5-0.6,6.2-1.5,8c-0.9,1.7-1.6,2.6-2.3,2.6c-0.7,0-1.1-0.4-1.1-1.1c0-0.3,0.3-0.7,0.8-1.3c0.6-0.7,1-1.5,1.3-2.4
		c0.4-1.1,0.6-2.2,0.7-3.6c0.1-1.4,0.2-3.1,0.2-5.3l0-4.8c0-0.7,0.1-1.3,0.4-1.6c0.3-0.4,0.9-0.6,2-0.8c1.1-0.2,2-0.4,2.7-0.6
		c0.5-0.1,0.8-0.2,0.8-0.2c-0.1,0,0.2-0.1,1.1-0.3c0.5-0.1,0.7-0.2,0.8-0.2c0.8,0,1.1,0.4,1.1,1.2c0,0.4-0.3,0.7-0.9,0.9
		c-2.1,0.5-3.8,0.9-5,1.1c-0.7,0.1-1.1,0.7-1.1,1.7v3h7c0.6,0,0.9,0.3,0.9,1c0,0.7-0.3,1-0.9,1h-1.7v11.5c0,0.8-0.3,1.2-1,1.2
		C242.5,109.5,242.2,109.1,242.2,108.3z"/>
	<path class="st0" d="M272.6,107.9c0,0.7-0.3,1.1-1,1.1c-1.3,0-2.9-0.4-4.9-1.2c-1-0.4-1.8-0.8-2.5-1.3c-0.7-0.5-1.4-1-2-1.6
		l-0.2,3.8c0,0.3-0.1,0.6-0.3,0.7c-0.2,0.2-0.4,0.2-0.7,0.2c-0.7,0-1-0.3-1-1v-3.7c-1.1,0.9-2.6,1.8-4.7,2.7
		c-2.1,0.9-3.7,1.4-4.7,1.4c-0.6,0-0.9-0.3-0.9-1c0-0.5,0.5-0.9,1.6-1.1c1.5-0.3,2.9-0.7,4-1.2c1.2-0.5,2.3-1.1,3.3-1.8h-7.7
		c-0.6,0-0.9-0.3-0.9-0.8c0-0.6,0.3-0.8,0.9-0.8h9.1V101h-0.6c-1.2,0-1.7-0.6-1.7-1.8v-5.2c0-1.2,0.5-1.7,1.6-1.7h0.3l0.3-1
		c0.2-0.6,0.6-0.9,1.1-0.9c0.7,0,1,0.3,1,0.8c0,0.2-0.2,0.5-0.5,1.1h1.4c1.1,0,1.6,0.6,1.6,1.7v5.2c0,0.6-0.1,1-0.4,1.3
		s-0.7,0.5-1.3,0.5H262v1.3h9.4c0.6,0,0.9,0.3,0.9,0.8c0,0.6-0.3,0.8-0.9,0.8h-8.1c1.2,0.9,2.5,1.5,3.8,2s2.8,0.8,4.3,0.9
		C272.2,107,272.6,107.3,272.6,107.9z M249.8,89.3c0-0.6,0.3-0.9,1-0.9h5v-0.9c0-0.6,0.3-0.9,1-0.9c0.7,0,1,0.3,1,0.9v0.9h6.6v-0.9
		c0-0.3,0.1-0.5,0.2-0.7c0.2-0.1,0.4-0.2,0.7-0.2c0.6,0,1,0.3,1,0.9v0.9h5.2c0.7,0,1,0.3,1,0.9c0,0.6-0.3,0.9-1,0.9h-5.2V91
		c0,0.6-0.3,0.9-1,0.9c-0.7,0-1-0.3-1-0.9v-0.9h-6.6V91c0,0.6-0.3,0.9-1,0.9c-0.7,0-1-0.3-1-0.9v-0.9h-5
		C250.1,90.1,249.8,89.8,249.8,89.3z M251.8,99.3l1.3-1.9c-0.6-0.7-1.4-1.3-2.3-2c-0.3-0.2-0.5-0.5-0.5-0.8c0-0.5,0.3-0.8,0.8-0.8
		c0.1,0,0.4,0.1,0.7,0.3c0.3-0.6,0.5-1.1,0.7-1.5l0.3-0.8c0.2-0.5,0.5-0.8,0.9-0.8c0.3,0,0.5,0.1,0.7,0.2s0.2,0.3,0.2,0.6
		c0,0.6-0.6,1.7-1.7,3.2L254,96l0.8-1.3c0.4-0.6,0.6-1,0.8-1.3s0.4-0.3,0.6-0.3c0.6,0,0.9,0.3,0.9,0.9c0,0.2-0.1,0.4-0.2,0.7
		c-1.3,2-2.3,3.5-3.1,4.5l1.9-0.3l-0.2-0.4c-0.2-0.4-0.3-0.6-0.3-0.8c0-0.2,0.1-0.4,0.2-0.5c0.1-0.1,0.3-0.2,0.5-0.2
		c0.2,0,0.4,0.1,0.5,0.2c0.1,0.1,0.3,0.3,0.4,0.7c0.7,1.5,1,2.3,1,2.6c0,0.3-0.1,0.4-0.2,0.6c-0.1,0.1-0.3,0.2-0.6,0.2
		c-0.4,0-0.7-0.4-1-1.1l-3.4,0.7l-1.5,0.2c-0.3,0-0.6,0-0.7-0.2c-0.2-0.2-0.3-0.4-0.3-0.7c0-0.5,0.4-0.8,1.2-0.9L251.8,99.3z
		 M259.4,95.8h3.4v-1.2c0-0.4-0.2-0.6-0.6-0.6H260c-0.2,0-0.3,0.1-0.4,0.2c-0.1,0.1-0.2,0.3-0.2,0.5V95.8z M260,99.5h2.2
		c0.4,0,0.6-0.2,0.6-0.6v-1.5h-3.4v1.5C259.4,99.3,259.6,99.5,260,99.5z M264.5,94.9c0-0.3,0.1-0.4,0.2-0.6c0.2-0.1,0.4-0.2,0.6-0.2
		c0.2,0,0.4,0.1,0.6,0.2c0.3-0.8,0.6-1.5,0.9-2.2c0.2-0.6,0.5-0.9,0.9-0.9c0.6,0,0.9,0.3,0.9,0.9c0,0.6-0.5,1.6-1.6,3.2l0.4,0.3
		l0.5,0.5l1-1.8c0.4-0.6,0.7-1,1.1-1c0.3,0,0.5,0.1,0.6,0.2c0.2,0.1,0.2,0.3,0.2,0.6c0,0.6-1.1,2.4-3.3,5.2L270,99l-0.1-0.2
		c-0.2-0.4-0.3-0.7-0.3-0.9c0-0.2,0.1-0.4,0.2-0.5c0.1-0.1,0.3-0.2,0.6-0.2c0.4,0,0.7,0.3,0.9,0.8c0.3,0.8,0.6,1.4,0.8,1.8
		c0.2,0.4,0.3,0.7,0.3,0.8c0,0.3-0.1,0.4-0.2,0.6c-0.2,0.1-0.4,0.2-0.6,0.2c-0.2,0-0.4-0.1-0.5-0.3c-0.2-0.2-0.3-0.4-0.4-0.8
		l-4.3,0.8c-0.4,0.1-0.6,0.1-0.8,0.1c-0.6,0-0.9-0.3-0.9-0.9c0-0.5,0.4-0.8,1.2-0.9l1.4-2c-0.6-0.6-1.2-1.2-2-1.8
		C264.7,95.5,264.5,95.2,264.5,94.9z"/>
	<path class="st0" d="M297.4,98.7c0.3,0.2,0.4,0.5,0.4,0.9c0,0.5-0.2,0.9-0.6,1.3c-0.9,1-1.7,1.8-2.5,2.4c-2,1.7-4.4,3.1-7.2,4.1
		c-2.6,1-5.8,1.7-9.8,2l-0.8,0.1c-0.4,0-0.7-0.1-0.9-0.3s-0.3-0.5-0.3-0.8c0-0.7,0.5-1,1.4-1c3.5-0.1,6.7-0.7,9.7-1.8
		c-0.6-0.5-1.5-1.2-2.8-2.1c-0.4-0.3-0.6-0.5-0.6-0.8c0-0.3,0.1-0.5,0.3-0.7c0.2-0.2,0.4-0.2,0.6-0.2c0.4,0,1,0.2,1.7,0.7
		c0.7,0.5,1.7,1.2,2.8,2.2c1.8-0.9,3.2-1.8,4.4-2.8l0.7-0.6c0.7-0.5,1-0.8,1-0.9c0-0.1-0.1-0.2-0.3-0.2h-9.2
		c-1.2,0.7-2.5,1.4-4.1,2.1c-1.5,0.7-2.5,1-3.1,1c-0.3,0-0.6-0.1-0.7-0.3s-0.2-0.4-0.2-0.7c0-0.5,0.4-0.8,1.3-1.1
		c3.5-1,6.3-2.5,8.4-4.4c0.3-0.2,0.5-0.4,0.7-0.5c0.2-0.1,0.4-0.2,0.6-0.3c0.3-0.1,0.5,0,0.7,0.2c0.2,0.2,0.3,0.4,0.3,0.6
		c0,0.2-0.1,0.5-0.4,0.7c-0.2,0.3-0.6,0.6-1,0.8h8.1C296.7,98.3,297.1,98.4,297.4,98.7z M275.9,97.9c0-0.3,0.2-0.6,0.5-0.8
		c0.3-0.2,0.9-0.3,1.6-0.4c2.1-0.3,4.3-0.8,6.8-1.6l-2.1-1.7c-0.2-0.2-0.4-0.3-0.5-0.4c-0.1-0.1-0.1-0.2-0.1-0.4
		c0-0.2,0.1-0.4,0.2-0.6c0.2-0.1,0.3-0.2,0.5-0.2c0.3,0,0.8,0.2,1.3,0.5c0.5,0.3,1.3,0.9,2.3,1.6l0.3,0.3c0.7-0.3,1.8-0.8,3.1-1.6
		c1.3-0.8,2.2-1.4,2.5-1.8c0-0.1,0.1-0.1,0.1-0.1c0-0.1-0.1-0.2-0.2-0.2h-9.2c-1,0.6-2.1,1.1-3.2,1.7c-1.1,0.5-1.8,0.8-2.2,0.8
		c-0.7,0-1-0.3-1-1c0-0.2,0.1-0.4,0.3-0.7c0.1-0.1,0.4-0.2,0.9-0.4l0.7-0.3c2-0.7,3.9-1.8,5.6-3.3c0.2-0.2,0.4-0.3,0.6-0.5l0.6-0.6
		c0.2-0.2,0.4-0.2,0.6-0.2c0.3,0,0.5,0.1,0.8,0.3c0.2,0.2,0.3,0.4,0.3,0.6c0,0.3-0.1,0.5-0.3,0.8c-0.2,0.3-0.6,0.6-1,0.9h8.3
		c0.6,0,1,0.1,1.3,0.4s0.5,0.5,0.5,0.9c0,0.4-0.2,0.8-0.6,1.2c-1,1-2.2,1.9-3.6,2.7s-2.8,1.6-4.2,2.2c-2.2,1-5.3,1.9-9.2,2.7
		c-0.6,0.1-1,0.2-1.2,0.2C276.2,99,275.9,98.6,275.9,97.9z"/>
	<path class="st0" d="M301.4,108.1c0-0.3,0.1-0.5,0.4-0.7s0.7-0.4,1.3-0.6c1.7-0.6,3-1.6,3.8-3.1c0.8-1.5,1.3-3.8,1.3-6.8h-5.5
		c-0.8,0-1.3-0.3-1.3-1c0-0.7,0.4-1,1.3-1h19.7c0.8,0,1.2,0.3,1.2,1c0,0.7-0.4,1-1.2,1h-6.4v8.7c0,0.6,0.2,0.9,0.7,1
		c0.4,0.1,1.1,0.2,2.2,0.2c1.3,0,2.1-0.2,2.4-0.5c0.3-0.3,0.4-0.8,0.4-1.6c0-0.8,0.4-1.2,1.1-1.2c0.4,0,0.6,0.1,0.8,0.3
		c0.2,0.2,0.3,0.4,0.3,0.8c0,1.5-0.3,2.6-0.8,3.3c-0.6,0.6-2.1,0.9-4.5,0.9c-1.7,0-2.9-0.1-3.4-0.3c-0.7-0.3-1-0.9-1-1.9v-9.6h-3.8
		l0,1.1c0,2.3-0.4,4.3-1.2,6c-0.7,1.6-1.7,2.9-3.1,3.8c-1.4,0.9-2.6,1.4-3.5,1.4C301.7,109.2,301.4,108.8,301.4,108.1z M304,88.8
		c0-0.7,0.4-1,1.3-1H320c0.8,0,1.2,0.3,1.2,1c0,0.7-0.4,1-1.2,1h-14.8C304.4,89.8,304,89.5,304,88.8z"/>
	<path class="st0" d="M327.1,108.4c0-0.4,0.1-0.7,0.3-0.8c0.2-0.2,0.5-0.3,0.9-0.3c3.3-0.5,6.1-1.4,8.4-2.7c-0.6-0.4-1.4-1.1-2.4-2
		c-1-0.9-1.8-1.8-2.4-2.6c-0.2-0.3-0.3-0.5-0.3-0.8c0-0.3,0.1-0.5,0.3-0.7c0.2-0.2,0.4-0.2,0.6-0.2c0.3,0,0.6,0.2,0.9,0.5
		c0.6,0.7,1.5,1.5,2.5,2.5c1,0.9,2,1.6,2.7,2.2c1.5-1.1,2.7-2.2,3.5-3.2c0.6-0.6,1.1-1.4,1.6-2.3c0.1-0.1,0.1-0.2,0.1-0.3
		c0-0.1,0-0.2-0.1-0.2s-0.2-0.1-0.3-0.1H331c-0.8,0-1.3-0.3-1.3-1c0-0.7,0.4-1,1.3-1h6.2v-3.1h-8.3c-0.9,0-1.3-0.4-1.3-1.1
		c0-0.7,0.4-1,1.3-1h8.3v-2.5c0-0.7,0.4-1,1.1-1c0.7,0,1.1,0.3,1.1,1v2.5h8.4c0.9,0,1.3,0.3,1.3,1c0,0.7-0.4,1-1.3,1h-8.4v3.1h4.9
		c1.4,0,2.1,0.5,2.1,1.4c0,0.8-0.6,2-1.7,3.5c-1.1,1.5-2.6,2.9-4.4,4.3c2.9,1.4,5.7,2.3,8.3,2.6c0.8,0.1,1.2,0.5,1.2,1.1
		c0,0.8-0.4,1.2-1.3,1.2c-0.6,0-1.2-0.1-2-0.3s-1.7-0.5-2.9-0.9c-2.1-0.7-3.8-1.5-5.2-2.4c-1.6,1-3.5,1.8-5.7,2.5
		c-1.9,0.6-3.4,0.9-4.5,0.9C327.5,109.3,327.1,109,327.1,108.4z"/>
	<path class="st0" d="M360.4,97.7c0.2,0.2,0.2,0.4,0.2,0.7c0,0.4-0.3,0.8-0.8,1L358,100v6.8c0,0.9-0.2,1.6-0.7,2.1
		c-0.4,0.4-1,0.6-1.9,0.6h-1.3c-0.7,0-1-0.4-1-1.1c0-0.7,0.3-1,1-1h0.9c0.6,0,0.9-0.3,0.9-1v-5.7c-1.4,0.4-2.2,0.6-2.5,0.6
		c-0.6,0-0.9-0.3-0.9-1c0-0.5,0.2-0.9,0.7-1l2.7-0.7v-5.2h-2.2c-0.8,0-1.1-0.3-1.1-1s0.4-1,1.1-1h2.2v-3.7c0-0.8,0.3-1.2,1-1.2
		c0.7,0,1,0.4,1,1.2v3.7h1.5c0.8,0,1.2,0.3,1.2,1s-0.4,1-1.2,1H358V98l1.3-0.5l0.5-0.1C360.1,97.4,360.3,97.5,360.4,97.7z M372,96.4
		v2.8h1.9c0.8,0,1.2,0.3,1.2,1c0,0.6-0.4,1-1.2,1H372v5.8c0,0.8-0.2,1.4-0.7,1.9c-0.4,0.4-1,0.6-1.8,0.6H368c-0.9,0-1.3-0.4-1.3-1.1
		c0-0.7,0.4-1.1,1.2-1.1h1.2c0.6,0,0.9-0.3,1-1v-5.2h-8c-0.8,0-1.2-0.3-1.2-1c0-0.6,0.4-1,1.2-1h8v-2.8h-8.5c-0.8,0-1.2-0.3-1.2-0.9
		c0-0.6,0.4-1,1.2-1h5v-2.9h-4.2c-0.8,0-1.2-0.3-1.2-0.9c0-0.6,0.4-1,1.2-1h4.2v-2.1c0-0.4,0.1-0.6,0.2-0.8s0.4-0.2,0.8-0.2
		c0.4,0,0.6,0.1,0.8,0.2s0.2,0.4,0.2,0.8v2.1h4.6c0.4,0,0.7,0.1,0.9,0.2c0.2,0.2,0.3,0.4,0.3,0.7c0,0.3-0.1,0.6-0.3,0.7
		s-0.5,0.2-0.9,0.2h-4.6v2.9h6c0.8,0,1.2,0.3,1.2,1c0,0.6-0.4,0.9-1.2,0.9H372z M365.3,103.4c0.7,0.8,1,1.4,1,1.7c0,0.7-0.4,1-1.1,1
		c-0.4,0-0.7-0.2-1-0.7l-0.9-1.3c0-0.1-0.1-0.2-0.3-0.4c-0.1-0.2-0.2-0.3-0.3-0.4c-0.1-0.1-0.1-0.2-0.1-0.3c0-0.6,0.3-0.9,1-0.9
		C364.1,102.2,364.7,102.6,365.3,103.4z"/>
	<path class="st0" d="M378.4,104.6c0-0.4,0.3-0.8,1-1.2c1.5-0.7,2.8-2,3.9-3.6h-3.7c-0.7,0-1-0.3-1-0.9c0-0.6,0.3-0.9,1-0.9h3.5
		v-7.4h-2.7c-0.7,0-1-0.3-1-0.9c0-0.6,0.3-0.9,1-0.9h2.7v-1c0-0.8,0.3-1.2,1-1.2c0.7,0,1,0.4,1,1.2v1h9.3v-1c0-0.8,0.3-1.2,1-1.2
		c0.7,0,1,0.4,1,1.2v1h2.8c0.7,0,1,0.3,1,0.9c0,0.6-0.3,0.9-1,0.9h-2.8V98h3.6c0.7,0,1,0.3,1,0.9c0,0.3-0.1,0.5-0.2,0.6
		c-0.2,0.1-0.4,0.2-0.7,0.2h-3.9c1.2,1.6,2.6,2.8,4.3,3.5c0.5,0.3,0.8,0.6,0.8,1.1c0,0.7-0.3,1.1-1,1.1c-0.5,0-1.3-0.5-2.6-1.5
		c-1.3-1.1-2.6-2.4-3.7-4.2h-8.4c-1.2,1.8-2.4,3.2-3.6,4.3c-1.3,1.1-2.1,1.6-2.7,1.6C378.7,105.6,378.4,105.3,378.4,104.6z
		 M380,107.8c0-0.6,0.3-0.9,1-0.9h7.7v-2.5h-4.4c-0.7,0-1-0.3-1-0.9c0-0.6,0.3-0.9,1-0.9h4.4v-1.2c0-0.8,0.4-1.2,1.1-1.2
		c0.7,0,1,0.4,1,1.2v1.2h4.4c0.7,0,1,0.3,1,0.9c0,0.6-0.3,0.9-1,0.9h-4.4v2.5h7.9c0.7,0,1.1,0.3,1.1,0.9s-0.4,0.9-1.1,0.9H381
		C380.3,108.8,380,108.4,380,107.8z M394.5,92.1v-1.5h-9.3v1.5H394.5z M394.5,95v-1.5h-9.3V95H394.5z M394.5,98v-1.6h-9.3V98H394.5z
		"/>
	<path class="st0" d="M425.9,96.7c-0.7,0-2.1-0.6-4.1-1.8c0,0,0,0.1,0,0.3c0,0.6-0.4,1-1.2,1h-4.3v3h7.9c0.8,0,1.2,0.3,1.2,1
		c0,0.6-0.4,0.9-1.2,0.9h-7.9v5.8h8.8c0.4,0,0.7,0.1,0.9,0.2c0.2,0.2,0.3,0.4,0.3,0.7c0,0.3-0.1,0.6-0.3,0.7
		c-0.2,0.2-0.5,0.2-0.9,0.2H406c-0.8,0-1.1-0.3-1.1-0.9c0-0.3,0.1-0.6,0.3-0.7c0.2-0.2,0.5-0.2,0.9-0.2h8.4v-5.8h-7.6
		c-0.8,0-1.2-0.3-1.2-0.9c0-0.6,0.4-1,1.2-1h7.6v-3h-4c-0.4,0-0.7-0.1-0.9-0.2c-0.2-0.2-0.3-0.4-0.3-0.7c0-0.1,0-0.2,0-0.3
		c-2.1,1.4-3.5,2.1-4.2,2.1c-0.7,0-1-0.4-1-1.1c0-0.3,0.1-0.6,0.3-0.7c0.2-0.1,0.4-0.3,0.8-0.5c0.2-0.1,0.5-0.2,0.9-0.4
		c3.3-1.7,5.9-3.8,7.8-6.3c0.4-0.5,0.7-0.8,0.9-1.1s0.5-0.3,0.7-0.3c0.3,0,0.6,0.1,0.8,0.3c0.2,0.2,0.3,0.4,0.3,0.7
		c0,0.1-0.1,0.4-0.2,0.7c1.1,1.3,2.3,2.3,3.5,3.1c2.2,1.5,4.2,2.5,5.7,3c0.9,0.3,1.3,0.7,1.3,1.3C427,96.3,426.6,96.7,425.9,96.7z
		 M407.9,102.9l-0.1-0.3c0-0.3,0-0.5,0.2-0.6s0.4-0.2,0.8-0.2c0.5,0,1,0.5,1.4,1.5c0.5,1,0.7,1.6,0.7,1.8c0,0.7-0.3,1-1,1
		c-0.5,0-0.9-0.4-1.1-1.1L407.9,102.9z M420.8,94.2c-2.1-1.5-4-3-5.4-4.6h0c-1.5,1.7-3.3,3.3-5.2,4.6h0.2H420.8z M421.2,101.9
		c0.2-0.2,0.4-0.3,0.7-0.3c0.7,0,1.1,0.3,1.1,0.9c0,0.2-0.2,0.9-0.7,1.9c-0.2,0.5-0.5,0.9-0.7,1.2c-0.2,0.3-0.5,0.4-0.8,0.4
		c-0.7,0-1.1-0.3-1.1-1c0-0.2,0.1-0.5,0.3-0.8l0.7-1.6C420.8,102.4,421,102.1,421.2,101.9z"/>
</g>
<g>
	<path class="st1" d="M162.9,5.4c1.7,0,3,0.5,4.1,1.5c1.1,1,1.6,2.4,1.6,4.1c0,1.7-0.5,3.1-1.6,4.2c-1.1,1.1-2.4,1.6-4.1,1.6h-11.7
		v55.6c0,1.8-0.5,3.2-1.6,4.2c-1.1,1-2.4,1.5-4.2,1.5c-1.7,0-3-0.5-4-1.5c-1-1-1.5-2.4-1.5-4.2V16.8H128c-1.7,0-3.1-0.5-4.2-1.6
		c-1.1-1.1-1.6-2.4-1.6-4.2c0-1.7,0.5-3.1,1.6-4.1c1.1-1,2.4-1.5,4.2-1.5H162.9z"/>
	<path class="st1" d="M176.7,72.5c0,1.8-0.5,3.2-1.5,4.2c-1,1-2.4,1.5-4.2,1.5c-1.6,0-2.9-0.5-4-1.5c-1.1-1-1.6-2.4-1.6-4.2V27.2
		c0-1.5,0.4-2.7,1.3-3.6c0.9-0.9,2-1.3,3.5-1.3c3.2,0,5.1,1.5,5.7,4.6c1.5-2.1,3.4-3.5,5.7-4.5c2.3-0.9,4.6-1.4,7-1.4
		c1.6,0,3.2,0.2,4.9,0.5c1.7,0.3,3.2,0.8,4.7,1.5c1.5,0.7,2.9,1.5,4.2,2.6c1.3,1.1,2.4,2.4,3.2,3.8c1.9-3,4.5-5.1,7.6-6.5
		c3.2-1.3,6.4-2,9.5-2c2.8,0,5.6,0.6,8.3,1.7c2.7,1.2,5,2.7,7.1,4.8c2,2,3.7,4.4,5,7.2c1.3,2.8,1.9,5.9,1.9,9.2v28.6
		c0,1.8-0.5,3.2-1.5,4.2c-1,1-2.4,1.5-4.1,1.5c-1.7,0-3-0.5-4.1-1.5c-1.1-1-1.6-2.4-1.6-4.2V43.9c0-1.7-0.3-3.2-0.9-4.6
		c-0.6-1.4-1.4-2.6-2.4-3.7c-1-1.1-2.2-1.9-3.5-2.5c-1.3-0.6-2.7-0.9-4.1-0.9c-1.5,0-2.9,0.3-4.3,0.9c-1.4,0.6-2.6,1.4-3.8,2.5
		c-1.1,1.1-2,2.3-2.7,3.7c-0.7,1.4-1,2.9-1,4.6v28.6c0,1.8-0.5,3.2-1.5,4.2c-1,1-2.4,1.5-4.2,1.5c-1.6,0-2.9-0.5-4-1.5
		c-1.1-1-1.6-2.4-1.6-4.2V43.9c0-1.7-0.3-3.2-0.9-4.6c-0.6-1.4-1.5-2.6-2.5-3.7c-1-1.1-2.2-1.9-3.5-2.5c-1.3-0.6-2.7-0.9-4.1-0.9
		c-1.4,0-2.8,0.3-4.2,0.9c-1.4,0.6-2.7,1.4-3.8,2.5c-1.1,1.1-2,2.3-2.7,3.7c-0.7,1.4-1,2.9-1,4.6V72.5z"/>
	<path class="st1" d="M289.2,3.6c5.6,0,10.8,1.1,15.6,3.4c4.9,2.3,9,5.3,12.5,9.2c0.4,0.5,0.8,1.1,1.1,1.6c0.3,0.5,0.5,1.3,0.5,2.2
		c0,1.8-0.5,3.2-1.6,4.2c-1.1,1-2.4,1.5-4.2,1.5c-1.3,0-2.2-0.2-2.8-0.6c-0.6-0.4-1.1-0.8-1.4-1.2c-2.5-2.8-5.4-4.9-8.8-6.5
		c-3.3-1.6-7-2.3-11-2.3c-3.7,0-7.2,0.7-10.4,2.1c-3.2,1.4-6,3.3-8.4,5.7c-2.4,2.4-4.3,5.2-5.6,8.4c-1.4,3.2-2,6.6-2,10.3
		c0,3.6,0.7,7,2,10.2c1.4,3.2,3.2,6,5.6,8.3c2.4,2.4,5.2,4.3,8.4,5.7c3.2,1.4,6.7,2.1,10.4,2.1c4,0,7.6-0.7,10.9-2.1
		c3.3-1.4,6.2-3.5,8.7-6.3c0.5-0.7,1.1-1.2,1.8-1.6c0.7-0.4,1.5-0.6,2.4-0.6c1.7,0,3.1,0.5,4.2,1.5c1.1,1,1.6,2.3,1.6,3.9
		c0,1.8-0.6,3.3-1.8,4.7c-3.5,3.8-7.6,6.7-12.4,8.9c-4.7,2.1-9.9,3.2-15.5,3.2c-5.2,0-10.1-1-14.7-2.9c-4.6-2-8.6-4.6-12-8
		c-3.4-3.4-6.1-7.4-8.1-12c-2-4.6-3-9.5-3-14.8c0-5.2,1-10.1,3-14.7c2-4.6,4.7-8.6,8.1-12.1c3.4-3.4,7.4-6.2,12-8.1
		C279.1,4.6,284,3.6,289.2,3.6z"/>
	<path class="st1" d="M343,5.4c5.2,0,10.2,0.9,14.8,2.7c4.6,1.8,8.7,4.3,12.1,7.4c3.4,3.2,6.2,7,8.1,11.4c2,4.4,3,9.3,3,14.6
		c0,5.3-1,10.2-3,14.6c-2,4.4-4.7,8.2-8.1,11.4c-3.4,3.2-7.5,5.7-12.1,7.4c-4.6,1.8-9.6,2.7-14.8,2.7h-11.9c-1.6,0-2.9-0.5-4-1.5
		c-1.1-1-1.6-2.4-1.6-4.2V11c0-1.7,0.5-3.1,1.6-4.1c1.1-1,2.4-1.5,4-1.5H343z M336.9,66.2h6.2c3.6,0,7.1-0.6,10.3-1.8
		c3.2-1.2,6.1-2.9,8.5-5.1c2.4-2.2,4.3-4.8,5.7-7.8c1.4-3,2.1-6.3,2.1-10c0-3.6-0.7-6.9-2.1-9.9c-1.4-3-3.3-5.7-5.7-7.8
		c-2.4-2.2-5.2-3.9-8.5-5.1c-3.2-1.2-6.7-1.8-10.3-1.8h-6.2V66.2z"/>
	<path class="st1" d="M422.8,5.4c1.7,0,3,0.5,4,1.5c1,1,1.5,2.4,1.5,4.1c0,1.7-0.5,3.1-1.5,4.2c-1,1.1-2.4,1.6-4,1.6h-22.6v16.7
		h21.7c1.7,0,3.1,0.5,4.2,1.6c1.1,1.1,1.6,2.4,1.6,4.1c0,1.8-0.5,3.2-1.6,4.2c-1.1,1-2.4,1.5-4.2,1.5h-21.7v27.6
		c0,1.8-0.5,3.2-1.5,4.2c-1,1-2.4,1.5-4.2,1.5c-1.6,0-2.9-0.5-4-1.5c-1.1-1-1.6-2.4-1.6-4.2V11c0-1.7,0.5-3.1,1.5-4.1
		c1-1,2.4-1.5,4.3-1.5H422.8z"/>
</g>
<g>
	<path class="st2" d="M55.7,67.4c0.9,0.1,1.8,0.4,2.6,0.7c1.7-1.8,3.2-3.6,4.5-5.4c0.7,0.9,1.4,1.8,2.1,2.8c0.4-0.7,0.9-1.3,1.5-1.8
		c-1.7-2.1-2.9-4.2-3.6-6.1C61.7,60.5,59.2,64.1,55.7,67.4z"/>
	<path class="st3" d="M54.4,71.2c-3.5,0-6.4,2.9-6.4,6.4c0,3.5,2.9,6.4,6.4,6.4c3.5,0,6.4-2.9,6.4-6.4C60.8,74,57.9,71.2,54.4,71.2z
		"/>
	<path class="st4" d="M73.6,64.5c-3.5,0-6.4,2.9-6.4,6.4c0,3.5,2.9,6.4,6.4,6.4c3.5,0,6.4-2.9,6.4-6.4C80,67.4,77.2,64.5,73.6,64.5z
		"/>
	<path class="st2" d="M114.9,25.1l-1.9-1.9c-3.9-3.9-9.2-6.1-14.8-6.1c-5.6,0-10.8,2.2-14.8,6.1L62.8,43.7L42.2,23.1
		C38.3,19.2,33,17,27.5,17c-5.6,0-10.8,2.2-14.8,6.1l-1.9,1.9C6.8,29,4.7,34.2,4.7,39.8c0,5.6,2.2,10.8,6.1,14.8l23.1,23.1l0.1,0.1
		c1.4,1.3,3.4,2,5.5,2c1.6,0,3.2-0.4,4.8-1c0-0.4-0.1-0.7-0.1-1.1c0-0.9,0.1-1.7,0.3-2.5c-3.3,1.3-6.1,1.4-7.4-0.1
		c-2.5-2.8,1.2-10.1,8.3-16.4c7.1-6.3,14.8-9.1,17.3-6.3c0.1,0.1,0.1,0.2,0.2,0.2c0.1-0.1,0.1-0.2,0.2-0.2c2.5-2.8,10.2,0,17.3,6.3
		c7.1,6.3,10.8,13.6,8.3,16.4c-1.1,1.2-3.2,1.4-5.9,0.6c-0.5,1-1.2,1.9-2.1,2.7c1.9,0.8,3.8,1.4,5.6,1.4h0c2.1,0,4-0.7,5.5-2
		l0.1-0.1l23.1-23.1C123,46.4,123,33.2,114.9,25.1z"/>
	<path class="st5" d="M80,70.9c0-3.5-2.9-6.4-6.4-6.4c-3.5,0-6.4,2.9-6.4,6.4c0,3.5,2.9,6.4,6.4,6.4C77.2,77.3,80,74.4,80,70.9z"/>
	<path class="st6" d="M67.3,78.8C67.2,78.8,67.2,78.8,67.3,78.8c-1,0-2,0.2-2.8,0.7c-2.1,1-3.6,3.2-3.6,5.7c0,0.1,0,0.2,0,0.2
		c0.1,3.4,2.9,6.1,6.4,6.1c3.5,0,6.4-2.9,6.4-6.4c0-1.6-0.6-3.1-1.6-4.2C70.9,79.7,69.2,78.8,67.3,78.8z"/>
	<path class="st7" d="M54.4,91.1c-3.5,0-6.4,2.9-6.4,6.4c0,3.5,2.9,6.4,6.4,6.4c3.5,0,6.4-2.9,6.4-6.4
		C60.8,93.9,57.9,91.1,54.4,91.1z"/>
	<path class="st8" d="M77,97.4c-3.5,0-6.4,2.9-6.4,6.4s2.9,6.4,6.4,6.4c3.5,0,6.4-2.9,6.4-6.4S80.5,97.4,77,97.4z"/>
</g>
</svg>
