<?xml version="1.0" encoding="utf-8"?>
<!-- Generator: Adobe Illustrator 24.0.1, SVG Export Plug-In . SVG Version: 6.00 Build 0)  -->
<svg version="1.1" id="圖層_1" xmlns="http://www.w3.org/2000/svg" xmlns:xlink="http://www.w3.org/1999/xlink" x="0px" y="0px"
	 viewBox="0 0 200 200" style="enable-background:new 0 0 200 200;" xml:space="preserve">
<style type="text/css">
	.st0{fill:#F29600;}
	.st1{fill:#6EBE8A;}
	.st2{fill:none;}
	.st3{fill:#337DC0;}
	.st4{fill:#E95A46;}
	.st5{fill:#F5BC49;}
	.st6{fill:#814898;}
	.st7{fill:#C7C8C8;}
</style>
<g>
	<path class="st0" d="M98.5,92.8c0.2,0,0.4,0.1,0.6,0.1c0.4-0.4,0.7-0.8,1-1.2c0.1,0.2,0.3,0.4,0.5,0.6c0.1-0.1,0.2-0.3,0.3-0.4
		c-0.4-0.5-0.6-0.9-0.8-1.3C99.7,91.3,99.2,92,98.5,92.8z"/>
	<path class="st1" d="M98.2,93.5c-0.7,0-1.4,0.6-1.4,1.4s0.6,1.4,1.4,1.4c0.7,0,1.4-0.6,1.4-1.4S98.9,93.5,98.2,93.5z"/>
	<path class="st2" d="M102.3,92.1c-0.7,0-1.4,0.6-1.4,1.4c0,0.7,0.6,1.4,1.4,1.4c0.7,0,1.4-0.6,1.4-1.4
		C103.6,92.7,103,92.1,102.3,92.1z"/>
	<path class="st0" d="M111,83.8l-0.4-0.4c-0.8-0.8-1.9-1.3-3.1-1.3c-1.2,0-2.3,0.5-3.1,1.3l-4.4,4.4l-4.4-4.4
		c-0.8-0.8-1.9-1.3-3.1-1.3c-1.2,0-2.3,0.5-3.1,1.3l-0.4,0.4c-0.8,0.8-1.3,1.9-1.3,3.1c0,1.2,0.5,2.3,1.3,3.1l4.9,4.9l0,0
		c0.3,0.3,0.7,0.4,1.2,0.4c0.3,0,0.7-0.1,1-0.2c0-0.1,0-0.2,0-0.2c0-0.2,0-0.4,0.1-0.5c-0.7,0.3-1.3,0.3-1.6,0
		c-0.5-0.6,0.3-2.1,1.8-3.5c1.5-1.3,3.1-1.9,3.7-1.3c0,0,0,0,0,0.1c0,0,0,0,0-0.1c0.5-0.6,2.2,0,3.7,1.3c1.5,1.3,2.3,2.9,1.8,3.5
		c-0.2,0.3-0.7,0.3-1.2,0.1c-0.1,0.2-0.3,0.4-0.4,0.6c0.4,0.2,0.8,0.3,1.2,0.3h0c0.4,0,0.8-0.1,1.2-0.4l0,0L111,90
		C112.7,88.3,112.7,85.5,111,83.8z"/>
	<path class="st3" d="M103.6,93.5c0-0.7-0.6-1.4-1.4-1.4c-0.7,0-1.4,0.6-1.4,1.4c0,0.7,0.6,1.4,1.4,1.4
		C103,94.8,103.6,94.2,103.6,93.5z"/>
	<path class="st4" d="M100.9,95.2C100.9,95.2,100.9,95.2,100.9,95.2c-0.2,0-0.4,0.1-0.6,0.1c-0.4,0.2-0.8,0.7-0.8,1.2c0,0,0,0,0,0.1
		c0,0.7,0.6,1.3,1.4,1.3c0.7,0,1.4-0.6,1.4-1.4c0-0.3-0.1-0.7-0.3-0.9C101.7,95.3,101.3,95.2,100.9,95.2z"/>
	<path class="st5" d="M98.2,97.8c-0.7,0-1.4,0.6-1.4,1.4c0,0.7,0.6,1.4,1.4,1.4c0.7,0,1.4-0.6,1.4-1.4
		C99.5,98.4,98.9,97.8,98.2,97.8z"/>
	<path class="st6" d="M103,99.1c-0.7,0-1.4,0.6-1.4,1.4s0.6,1.4,1.4,1.4c0.7,0,1.4-0.6,1.4-1.4S103.7,99.1,103,99.1z"/>
</g>
<g>
	<path class="st7" d="M87.7,112.7c-0.1-0.1-0.1-0.2-0.1-0.3v-4c0-0.1,0-0.2,0.1-0.2c0.1-0.1,0.1-0.1,0.2-0.1s0.2,0,0.2,0.1
		c0.1,0.1,0.1,0.1,0.1,0.2v3.7c0,0.1,0,0.1,0.1,0.1h2.1c0.1,0,0.2,0,0.2,0.1c0.1,0.1,0.1,0.1,0.1,0.2c0,0.1,0,0.2-0.1,0.2
		c-0.1,0.1-0.1,0.1-0.2,0.1H88C87.9,112.8,87.8,112.8,87.7,112.7z"/>
	<path class="st7" d="M91.9,112.6c-0.3-0.2-0.5-0.4-0.6-0.6c-0.1-0.3-0.2-0.6-0.2-0.9c0-0.4,0.1-0.7,0.2-0.9
		c0.1-0.3,0.3-0.5,0.6-0.6c0.3-0.1,0.6-0.2,0.9-0.2s0.6,0.1,0.9,0.2c0.3,0.2,0.5,0.4,0.6,0.6s0.2,0.6,0.2,0.9c0,0.4-0.1,0.7-0.2,0.9
		c-0.1,0.3-0.4,0.5-0.6,0.6c-0.3,0.1-0.6,0.2-0.9,0.2C92.5,112.9,92.2,112.8,91.9,112.6z M93.4,112.2c0.2-0.1,0.3-0.2,0.4-0.4
		c0.1-0.2,0.2-0.4,0.2-0.7c0-0.3-0.1-0.5-0.2-0.7c-0.1-0.2-0.2-0.3-0.4-0.4s-0.3-0.1-0.6-0.1c-0.2,0-0.4,0-0.5,0.1
		c-0.2,0.1-0.3,0.2-0.4,0.4c-0.1,0.2-0.2,0.4-0.2,0.7c0,0.3,0.1,0.5,0.2,0.7c0.1,0.2,0.2,0.3,0.4,0.4c0.2,0.1,0.3,0.1,0.6,0.1
		C93,112.3,93.2,112.2,93.4,112.2z"/>
	<path class="st7" d="M95.8,112.7c-0.2-0.1-0.3-0.2-0.4-0.4c-0.1-0.2-0.1-0.3-0.1-0.5c0-0.4,0.1-0.6,0.4-0.8
		c0.3-0.2,0.7-0.3,1.2-0.3h0.8v0c0-0.3-0.1-0.5-0.2-0.6c-0.1-0.1-0.4-0.2-0.7-0.2c-0.2,0-0.3,0-0.4,0c-0.1,0-0.3,0.1-0.5,0.1l-0.1,0
		c-0.1,0-0.1,0-0.2-0.1s-0.1-0.1-0.1-0.2c0-0.1,0.1-0.2,0.2-0.3c0.4-0.2,0.8-0.2,1.2-0.2c0.3,0,0.6,0.1,0.8,0.2
		c0.2,0.1,0.4,0.3,0.5,0.5c0.1,0.2,0.2,0.4,0.2,0.7v1.9c0,0.1,0,0.2-0.1,0.2s-0.1,0.1-0.2,0.1c-0.1,0-0.2,0-0.2-0.1
		c-0.1-0.1-0.1-0.1-0.1-0.2v-0.2c-0.3,0.3-0.7,0.5-1.3,0.5C96.1,112.9,95.9,112.8,95.8,112.7z M97.1,112.2c0.2-0.1,0.3-0.2,0.5-0.4
		v-0.6h-0.7c-0.7,0-1,0.2-1,0.5c0,0.4,0.2,0.5,0.7,0.5C96.7,112.3,96.9,112.3,97.1,112.2z"/>
	<path class="st7" d="M99.9,112.6c-0.3-0.1-0.5-0.4-0.6-0.6c-0.2-0.3-0.2-0.6-0.2-0.9c0-0.4,0.1-0.7,0.2-1c0.2-0.3,0.4-0.5,0.6-0.6
		c0.2-0.1,0.5-0.2,0.8-0.2c0.4,0,0.8,0.2,1.1,0.5v-1.6c0-0.1,0-0.2,0.1-0.2c0.1-0.1,0.1-0.1,0.2-0.1c0.1,0,0.2,0,0.2,0.1
		c0.1,0.1,0.1,0.1,0.1,0.2v4.4c0,0.1,0,0.2-0.1,0.2s-0.1,0.1-0.2,0.1c-0.1,0-0.2,0-0.2-0.1c-0.1-0.1-0.1-0.1-0.1-0.2v-0.2
		c-0.3,0.3-0.7,0.5-1.1,0.5C100.4,112.9,100.1,112.8,99.9,112.6z M101.3,112.1c0.2-0.1,0.3-0.2,0.5-0.4v-1.4
		c-0.1-0.2-0.3-0.3-0.5-0.4c-0.2-0.1-0.4-0.1-0.6-0.1c-0.3,0-0.6,0.1-0.8,0.3s-0.3,0.5-0.3,0.9c0,0.4,0.1,0.7,0.3,0.9
		s0.5,0.3,0.8,0.3C100.9,112.3,101.1,112.2,101.3,112.1z"/>
	<path class="st7" d="M103.5,108.5c-0.1-0.1-0.1-0.2-0.1-0.2v0c0-0.1,0-0.2,0.1-0.2c0.1-0.1,0.2-0.1,0.2-0.1h0c0.1,0,0.2,0,0.2,0.1
		c0.1,0.1,0.1,0.2,0.1,0.2v0c0,0.1,0,0.2-0.1,0.2c-0.1,0.1-0.2,0.1-0.2,0.1h0C103.7,108.7,103.6,108.6,103.5,108.5z M103.6,112.7
		c-0.1-0.1-0.1-0.1-0.1-0.2v-2.9c0-0.1,0-0.2,0.1-0.2c0.1-0.1,0.1-0.1,0.2-0.1c0.1,0,0.2,0,0.2,0.1s0.1,0.1,0.1,0.2v2.9
		c0,0.1,0,0.2-0.1,0.2c-0.1,0.1-0.1,0.1-0.2,0.1C103.7,112.8,103.6,112.8,103.6,112.7z"/>
	<path class="st7" d="M105.3,112.7c-0.1-0.1-0.1-0.1-0.1-0.2v-2.9c0-0.1,0-0.2,0.1-0.2c0.1-0.1,0.1-0.1,0.2-0.1c0.1,0,0.2,0,0.2,0.1
		c0.1,0.1,0.1,0.1,0.1,0.2v0.3c0.2-0.2,0.4-0.3,0.6-0.5c0.2-0.1,0.4-0.2,0.7-0.2c0.2,0,0.5,0.1,0.7,0.2c0.2,0.1,0.3,0.3,0.4,0.5
		c0.1,0.2,0.1,0.4,0.1,0.7v1.9c0,0.1,0,0.2-0.1,0.2s-0.1,0.1-0.2,0.1c-0.1,0-0.2,0-0.2-0.1s-0.1-0.1-0.1-0.2v-1.9
		c0-0.5-0.2-0.8-0.7-0.8c-0.2,0-0.4,0.1-0.6,0.2c-0.2,0.1-0.3,0.3-0.5,0.5v2c0,0.1,0,0.2-0.1,0.2c-0.1,0.1-0.1,0.1-0.2,0.1
		C105.4,112.8,105.3,112.8,105.3,112.7z"/>
	<path class="st7" d="M110.1,114.3c-0.3-0.1-0.5-0.2-0.7-0.3c-0.1-0.1-0.1-0.1-0.1-0.2c0-0.1,0-0.1,0.1-0.2c0.1-0.1,0.1-0.1,0.2-0.1
		c0,0,0.1,0,0.1,0c0.4,0.2,0.7,0.3,1.1,0.3c0.7,0,1-0.4,1-1.1v-0.4c-0.3,0.3-0.7,0.5-1.1,0.5c-0.3,0-0.5-0.1-0.8-0.2
		c-0.3-0.1-0.5-0.3-0.6-0.6c-0.2-0.3-0.2-0.6-0.2-0.9c0-0.4,0.1-0.7,0.2-1c0.2-0.3,0.4-0.5,0.6-0.6c0.3-0.1,0.5-0.2,0.8-0.2
		c0.5,0,0.8,0.2,1.1,0.5v-0.1c0-0.1,0-0.2,0.1-0.2c0.1-0.1,0.1-0.1,0.2-0.1c0.1,0,0.2,0,0.2,0.1c0.1,0.1,0.1,0.1,0.1,0.2v3
		c0,0.6-0.1,1-0.4,1.3c-0.3,0.3-0.7,0.5-1.2,0.5C110.6,114.4,110.4,114.4,110.1,114.3z M111.4,112.1c0.2-0.1,0.3-0.2,0.5-0.4v-1.4
		c-0.2-0.2-0.3-0.3-0.5-0.4c-0.2-0.1-0.3-0.1-0.5-0.1c-0.3,0-0.6,0.1-0.8,0.3s-0.3,0.5-0.3,0.9s0.1,0.7,0.3,0.9s0.5,0.3,0.8,0.3
		C111,112.2,111.2,112.2,111.4,112.1z"/>
</g>
</svg>
