<?xml version="1.0" encoding="utf-8"?>
<!-- Generator: Adobe Illustrator 24.0.1, SVG Export Plug-In . SVG Version: 6.00 Build 0)  -->
<svg version="1.1" id="圖層_1" xmlns="http://www.w3.org/2000/svg" xmlns:xlink="http://www.w3.org/1999/xlink" x="0px" y="0px"
	 viewBox="0 0 343.12 87.24" style="enable-background:new 0 0 343.12 87.24;" xml:space="preserve">
<style type="text/css">
	.st0{fill:#747374;}
	.st1{fill:#8F549E;}
	.st2{fill:#B72B72;}
	.st3{fill:#6EBF8B;}
	.st4{fill:none;}
	.st5{fill:#337DC1;}
	.st6{fill:#EA5A46;}
	.st7{fill:#F6BD49;}
	.st8{fill:#824899;}
</style>
<g>
	<path class="st0" d="M110.67,73.84l-0.38-0.48l-14.55,0.82c-0.31,0.01-0.54-0.05-0.69-0.2c-0.15-0.15-0.23-0.37-0.23-0.66
		c0-0.41,0.21-0.67,0.64-0.78l1.06-0.06l1.52-0.02c0.88-1.4,1.75-3.07,2.61-4.99c0.15-0.35,0.32-0.6,0.51-0.77
		c0.19-0.17,0.42-0.25,0.67-0.25c0.57,0,0.86,0.25,0.86,0.76c0,0.35-0.51,1.36-1.54,3.03l-1.36,2.17c4.65-0.11,7.64-0.21,8.96-0.3
		l0.38-0.02c-0.95-1.06-1.66-1.75-2.13-2.08c-0.43-0.29-0.64-0.59-0.64-0.88c0-0.24,0.06-0.42,0.18-0.54
		c0.12-0.12,0.31-0.18,0.58-0.18c0.33,0,1.38,0.83,3.15,2.51c1.74,1.66,2.61,2.73,2.61,3.21c0,0.54-0.3,0.8-0.9,0.8
		C111.62,74.9,111.19,74.54,110.67,73.84z M97.17,83.6c-0.35-0.35-0.5-0.89-0.45-1.64v-3.87c-0.09-1.52,0.63-2.24,2.17-2.14h9.84
		c1.56-0.09,2.29,0.62,2.19,2.14v3.87c0.09,1.52-0.64,2.25-2.19,2.17h-9.84C98.09,84.12,97.52,83.95,97.17,83.6z M109.23,81.53
		v-2.97c0-0.74-0.35-1.1-1.06-1.1H99.5c-0.72,0-1.08,0.35-1.08,1.06v2.97c0,0.72,0.35,1.08,1.04,1.08h8.66
		C108.86,82.58,109.23,82.23,109.23,81.53z"/>
	<path class="st0" d="M116.16,73.7c-0.57-0.33-0.86-0.64-0.86-0.92c0-0.56,0.29-0.84,0.86-0.84c0.13,0,0.35,0.07,0.64,0.22
		l0.42,0.16c0.63,0.23,0.94,0.58,0.94,1.04c0,0.56-0.27,0.84-0.82,0.84C117.13,74.2,116.74,74.03,116.16,73.7z M115.4,83.3
		c0-0.11,0.05-0.29,0.16-0.54c0.69-1.63,1.27-3.33,1.72-5.09c0.15-0.52,0.43-0.78,0.84-0.78c0.55,0,0.82,0.28,0.82,0.84
		c0,0.33-0.3,1.4-0.9,3.21c-0.59,1.78-0.94,2.75-1.04,2.91c-0.16,0.24-0.39,0.36-0.7,0.36C115.7,84.2,115.4,83.9,115.4,83.3z
		 M116.54,68.58c-0.59-0.35-0.88-0.65-0.88-0.92c0-0.56,0.29-0.84,0.88-0.84c0.07,0,0.25,0.06,0.56,0.18c0.43,0.16,0.76,0.34,1,0.55
		c0.24,0.21,0.36,0.42,0.36,0.65c0,0.56-0.27,0.84-0.8,0.84C117.44,69.04,117.06,68.89,116.54,68.58z M120.57,75.54v-3.21
		l-1.66,0.16c-0.2,0.01-0.35-0.03-0.45-0.14c-0.1-0.11-0.15-0.26-0.15-0.46c0-0.39,0.41-0.58,1.22-0.58l0.6-0.8l-0.96-0.78
		c-0.25-0.2-0.43-0.35-0.53-0.45c-0.1-0.1-0.15-0.19-0.15-0.27c0-0.41,0.18-0.62,0.54-0.62c0.08,0,0.21,0.05,0.38,0.14
		c0.23-0.36,0.52-0.89,0.88-1.6c0.16-0.31,0.34-0.46,0.54-0.46c0.41,0,0.62,0.18,0.62,0.54c0,0.29-0.41,0.99-1.24,2.08l0.6,0.52
		l0.94-1.42c0.27-0.39,0.5-0.58,0.7-0.58c0.4,0,0.6,0.19,0.6,0.58c0,0.42-0.74,1.43-2.23,3.05l1.32-0.08
		c-0.15-0.25-0.22-0.45-0.22-0.58c0-0.28,0.18-0.42,0.54-0.42c0.19,0,0.43,0.27,0.74,0.8c0.35,0.63,0.52,1.01,0.52,1.14
		c0,0.17-0.05,0.31-0.15,0.4s-0.24,0.14-0.43,0.14c-0.25,0-0.47-0.19-0.64-0.56l-0.78,0.1v3.37c0,0.43-0.19,0.64-0.56,0.64
		C120.77,76.18,120.57,75.97,120.57,75.54z M118.53,75.28l0.04-0.34l0.34-1.32c0.07-0.25,0.14-0.44,0.23-0.56
		c0.09-0.12,0.21-0.18,0.37-0.18c0.36,0,0.54,0.17,0.54,0.5c0,0.39-0.11,1.02-0.34,1.88c-0.09,0.36-0.29,0.54-0.6,0.54
		C118.72,75.8,118.53,75.63,118.53,75.28z M128.09,83.9c0-0.51,0.31-0.76,0.94-0.76l1.2,0.04c0.88,0.04,1.32-0.29,1.32-1
		c0-0.15-0.09-0.22-0.28-0.22h-10.6c-0.84,0-1.26-0.34-1.26-1.02c0-0.27,0.11-0.75,0.32-1.44c0.19-0.6,0.6-0.9,1.24-0.9h9.72
		c0.12,0,0.2-0.03,0.25-0.1c0.05-0.07,0.07-0.19,0.07-0.36c0-0.17-0.02-0.29-0.07-0.35c-0.05-0.06-0.13-0.1-0.25-0.11h-10.48
		c-0.47,0-0.7-0.2-0.7-0.6c0-0.4,0.23-0.6,0.7-0.6h11.11c0.87,0,1.3,0.4,1.3,1.2v0.92c0,0.79-0.43,1.18-1.3,1.18h-9.86
		c-0.28,0-0.42,0.24-0.42,0.72c0,0.16,0.11,0.24,0.32,0.24h10.58c0.87,0,1.3,0.35,1.3,1.06c0,1.06-0.23,1.8-0.7,2.23
		c-0.47,0.43-1.66,0.64-3.57,0.64C128.38,84.66,128.09,84.41,128.09,83.9z M122.42,74.7l-0.18-0.72l-0.08-0.42l-0.06-0.26
		c-0.04-0.15,0-0.26,0.11-0.34c0.11-0.08,0.27-0.12,0.47-0.12c0.24,0,0.46,0.3,0.66,0.9l0.3,1.2c0,0.39-0.19,0.58-0.58,0.58
		C122.76,75.52,122.55,75.25,122.42,74.7z M123.34,68.84c0-0.33,0.18-0.5,0.54-0.5h3.63c0.37,0,0.56,0.17,0.56,0.5
		c0,0.32-0.19,0.48-0.56,0.48h-3.63C123.52,69.33,123.34,69.17,123.34,68.84z M123.8,74.98v-1.02c0-0.32,0.09-0.56,0.28-0.72
		c0.19-0.16,0.46-0.24,0.82-0.24h1.78c0.35,0,0.62,0.08,0.81,0.25s0.3,0.4,0.31,0.71v1.02c0,0.31-0.1,0.54-0.3,0.71
		c-0.2,0.17-0.47,0.25-0.82,0.25h-1.74C124.21,75.94,123.83,75.62,123.8,74.98z M123.82,67.22c0-0.15,0.05-0.26,0.14-0.35
		c0.09-0.09,0.23-0.13,0.4-0.13h2.85c0.37,0,0.56,0.17,0.56,0.5c0,0.32-0.17,0.48-0.5,0.48h-2.87
		C124.01,67.72,123.82,67.55,123.82,67.22z M123.82,70.39c0-0.32,0.17-0.48,0.52-0.48h2.89c0.36,0,0.54,0.16,0.54,0.48
		c0,0.33-0.16,0.5-0.48,0.5h-2.89C124.01,70.89,123.82,70.72,123.82,70.39z M123.82,71.95c0-0.32,0.17-0.48,0.52-0.48h2.89
		c0.36,0,0.54,0.16,0.54,0.48c0,0.32-0.16,0.48-0.48,0.48h-2.89C124.01,72.43,123.82,72.27,123.82,71.95z M126.73,74.74V74.2
		c0-0.15-0.11-0.22-0.34-0.22h-1.16c-0.2,0-0.3,0.07-0.3,0.22v0.54c0,0.15,0.1,0.22,0.3,0.22h1.16
		C126.59,74.96,126.7,74.89,126.73,74.74z M130.23,75.54v-3.21l-1.7,0.16c-0.2,0.01-0.35-0.03-0.45-0.14
		c-0.1-0.11-0.15-0.26-0.15-0.46c0-0.39,0.41-0.58,1.24-0.58l0.62-0.78l-1.1-0.88c-0.23-0.17-0.39-0.31-0.48-0.41
		c-0.09-0.1-0.14-0.19-0.14-0.27c0-0.4,0.18-0.6,0.54-0.6c0.13,0,0.25,0.04,0.36,0.12l0.9-1.68c0.13-0.23,0.3-0.34,0.5-0.34
		c0.41,0,0.62,0.18,0.62,0.54c0,0.23-0.4,0.91-1.2,2.04l0.66,0.58l0.96-1.44c0.13-0.2,0.25-0.35,0.36-0.44
		c0.11-0.09,0.22-0.14,0.34-0.14c0.4,0,0.6,0.19,0.6,0.58c0,0.44-0.73,1.46-2.21,3.05l1.46-0.1c-0.13-0.29-0.2-0.48-0.2-0.56
		c0-0.28,0.17-0.42,0.52-0.42c0.25,0,0.52,0.3,0.8,0.9c0.04,0.08,0.12,0.26,0.25,0.53c0.13,0.27,0.19,0.44,0.19,0.51
		c0,0.17-0.05,0.31-0.15,0.4c-0.1,0.09-0.24,0.14-0.41,0.14c-0.24,0-0.45-0.2-0.64-0.6l-0.94,0.14v3.37c0,0.43-0.19,0.64-0.58,0.64
		C130.43,76.18,130.23,75.97,130.23,75.54z M128.09,75.26l0.38-1.64c0.11-0.5,0.3-0.74,0.58-0.74c0.37,0,0.56,0.17,0.56,0.5
		c0,0.46-0.11,1.08-0.34,1.88c-0.09,0.36-0.29,0.54-0.6,0.54C128.28,75.8,128.09,75.62,128.09,75.26z M132.18,74.62l-0.28-1.32
		c-0.03-0.15,0.01-0.26,0.12-0.34s0.26-0.12,0.46-0.12c0.24,0,0.46,0.3,0.66,0.9l0.3,1.2c0,0.39-0.2,0.58-0.6,0.58
		C132.53,75.52,132.31,75.22,132.18,74.62z"/>
	<path class="st0" d="M135.79,83.3c0-0.25,0.12-0.51,0.36-0.78c1.16-1.35,1.91-3.21,2.25-5.57c-1.03,0.78-1.66,1.16-1.9,1.16
		c-0.55,0-0.82-0.29-0.82-0.86c0-0.35,0.21-0.61,0.64-0.8c0.71-0.31,1.46-0.69,2.25-1.16v-5.25c0-1.27,0.63-1.9,1.9-1.9h4.49v-0.9
		c0-0.56,0.31-0.84,0.94-0.84c0.61,0,0.92,0.28,0.92,0.84v0.9h6.25c0.56,0,0.84,0.24,0.84,0.72c0,0.47-0.28,0.7-0.84,0.7h-12.35
		c-0.21,0-0.37,0.06-0.46,0.17c-0.09,0.11-0.14,0.3-0.14,0.57v2.13c0,2.63-0.17,4.82-0.52,6.55c-0.31,1.58-0.94,3.06-1.9,4.45
		c-0.17,0.25-0.35,0.45-0.54,0.59c-0.19,0.14-0.35,0.21-0.5,0.21C136.07,84.22,135.79,83.91,135.79,83.3z M136.68,73.32
		c-0.14-0.2-0.24-0.49-0.29-0.86l-0.44-1.8l-0.06-0.34c-0.04-0.2,0.01-0.35,0.15-0.46c0.14-0.11,0.33-0.16,0.57-0.16
		c0.28,0,0.49,0.14,0.62,0.42c0.13,0.31,0.34,1.09,0.62,2.35l0.08,0.4c0,0.51-0.25,0.76-0.76,0.76
		C136.98,73.62,136.82,73.52,136.68,73.32z M140.64,77.79v-1.14c0-0.94,0.46-1.4,1.38-1.4h2.87c0.91,0,1.36,0.47,1.36,1.4v1.14
		c0,0.94-0.44,1.4-1.32,1.4h-2.91C141.1,79.19,140.64,78.72,140.64,77.79z M140.8,82.38v-1.8c0-0.52,0.25-0.78,0.76-0.78
		s0.76,0.26,0.76,0.78v1.38c0,0.2,0.05,0.35,0.14,0.44c0.09,0.09,0.25,0.15,0.46,0.16h3.15v-2.55c0-0.64,0.26-0.96,0.78-0.96
		c0.49,0,0.74,0.32,0.74,0.96v2.55h3.19c0.41,0,0.62-0.2,0.62-0.6v-1.36c0-0.53,0.27-0.8,0.8-0.8s0.8,0.27,0.8,0.8v1.72
		c0,0.59-0.13,1.02-0.39,1.28c-0.26,0.27-0.69,0.39-1.27,0.36h-8.96C141.33,83.96,140.8,83.43,140.8,82.38z M144.89,77.46v-0.54
		c0-0.28-0.16-0.43-0.48-0.44h-1.96c-0.15,0-0.26,0.04-0.33,0.12c-0.07,0.08-0.1,0.19-0.09,0.32v0.54c0,0.31,0.14,0.47,0.42,0.48
		h1.96C144.73,77.95,144.89,77.79,144.89,77.46z M142.02,73.07v-1.12c0-0.94,0.47-1.4,1.4-1.4h6.82c0.95,0,1.42,0.46,1.42,1.38v1.08
		c0,0.95-0.47,1.42-1.42,1.42h-6.82C142.49,74.44,142.02,73.98,142.02,73.07z M150.1,72.69v-0.4c0-0.31-0.16-0.47-0.48-0.48h-5.59
		c-0.15,0-0.26,0.04-0.33,0.11c-0.07,0.07-0.12,0.2-0.13,0.37v0.4c0,0.16,0.04,0.28,0.11,0.35c0.07,0.07,0.19,0.12,0.35,0.13h5.59
		C149.94,73.17,150.1,73.01,150.1,72.69z M147.51,77.79v-1.14c0-0.94,0.45-1.4,1.36-1.4h2.99c0.94,0,1.4,0.47,1.4,1.42v1.1
		c0,0.95-0.47,1.42-1.4,1.42h-2.99C147.97,79.19,147.51,78.72,147.51,77.79z M151.84,77.46v-0.52c0-0.29-0.16-0.45-0.48-0.46h-2
		c-0.32,0-0.48,0.15-0.48,0.44v0.54c0,0.31,0.16,0.47,0.48,0.48h2C151.67,77.95,151.83,77.79,151.84,77.46z"/>
	<path class="st0" d="M156.34,83.32c0-0.2,0.14-0.47,0.42-0.82c1.24-1.48,2-3.38,2.29-5.69c-1.14,0.86-1.81,1.28-2.02,1.28
		c-0.53,0-0.8-0.29-0.8-0.86c0-0.36,0.21-0.63,0.62-0.8c0.6-0.27,1.37-0.67,2.31-1.22l0.04-4.91c0-0.59,0.17-1.04,0.51-1.34
		c0.34-0.31,0.85-0.46,1.51-0.46h4.31v-1.24c0-0.58,0.31-0.86,0.92-0.86c0.61,0,0.92,0.29,0.92,0.86v1.24h6.11
		c0.63,0,0.94,0.26,0.94,0.78c0,0.51-0.31,0.76-0.94,0.76h-12.11c-0.41,0-0.62,0.28-0.62,0.84v1.46c0,2.59-0.13,4.61-0.38,6.05
		c-0.25,1.46-0.72,2.77-1.4,3.95c-0.72,1.26-1.32,1.88-1.78,1.88C156.62,84.22,156.34,83.92,156.34,83.32z M156.96,72.47
		c-0.07-0.41-0.19-0.91-0.36-1.48l-0.14-0.7c-0.04-0.2,0.01-0.35,0.14-0.45c0.13-0.1,0.33-0.15,0.58-0.15
		c0.23,0,0.42,0.11,0.58,0.34c0.2,0.31,0.41,1.1,0.62,2.39l0.08,0.5c0.03,0.21-0.03,0.37-0.16,0.48c-0.13,0.11-0.33,0.16-0.58,0.16
		C157.32,73.56,157.06,73.19,156.96,72.47z M159.52,82.96c0-0.5,0.29-0.74,0.86-0.74h2.1v-5.47c0-0.67,0.27-1,0.8-1
		c0.53,0,0.8,0.33,0.8,1v5.47h2.97v-8.3h-4.95c-0.58,0-0.86-0.25-0.86-0.76c0-0.49,0.29-0.74,0.86-0.74h10.99
		c0.59,0,0.88,0.25,0.88,0.76c0,0.49-0.29,0.74-0.88,0.74h-4.41v3.25h3.61c0.61,0,0.92,0.25,0.92,0.76c0,0.49-0.31,0.74-0.92,0.74
		h-3.61v3.55h4.91c0.61,0,0.92,0.25,0.92,0.76c0,0.49-0.31,0.74-0.92,0.74h-13.21C159.81,83.72,159.52,83.46,159.52,82.96z"/>
	<path class="st0" d="M180.93,83.76v-4.37c-0.49,0.94-1.14,1.8-1.92,2.59c-0.77,0.77-1.29,1.16-1.54,1.16
		c-0.48,0-0.72-0.29-0.72-0.86c0-0.15,0.07-0.3,0.21-0.47c0.14-0.17,0.36-0.37,0.67-0.61c1.47-1.16,2.5-2.32,3.09-3.47h-2.81
		c-0.6,0-0.9-0.25-0.9-0.74c0-0.48,0.3-0.72,0.9-0.72h3.03v-1.88h-3.29c-0.31,0-0.53-0.06-0.67-0.17c-0.14-0.11-0.21-0.3-0.21-0.55
		c0-0.5,0.29-0.74,0.88-0.74h1.28c-0.07-0.71-0.23-1.62-0.48-2.75l-0.02-0.16h-0.7c-0.48,0-0.72-0.25-0.72-0.74
		c0-0.48,0.24-0.72,0.72-0.72h3.15V67.4c0-0.68,0.28-1.02,0.84-1.02s0.84,0.34,0.84,1.02v1.14h3.13c0.47,0,0.7,0.24,0.7,0.72
		c0,0.49-0.23,0.74-0.7,0.74h-0.9l-0.56,2.91h1.54c0.59,0,0.88,0.25,0.88,0.74c0,0.25-0.07,0.44-0.21,0.55
		c-0.14,0.11-0.36,0.17-0.67,0.17h-3.27v1.88h3.01c0.6,0,0.9,0.25,0.9,0.74c0,0.48-0.3,0.72-0.9,0.72h-3.01v1.46
		c0.15-0.27,0.38-0.4,0.7-0.4c0.23,0,0.67,0.25,1.34,0.76s1,0.9,1,1.16c0,0.5-0.24,0.74-0.72,0.74c-0.2,0-0.46-0.14-0.78-0.42
		l-1.54-1.34v4.07c0,0.63-0.26,0.94-0.78,0.94C181.19,84.7,180.93,84.39,180.93,83.76z M183.34,70.11v-0.1h-3.51
		c0.16,0.67,0.33,1.62,0.5,2.87v0.04h2.49L183.34,70.11z M191.32,83.68v-9.14h-2.67l-0.04,1.4c-0.08,2.82-0.47,4.94-1.16,6.35
		c-0.68,1.39-1.29,2.08-1.82,2.08c-0.58,0-0.86-0.29-0.86-0.88c0-0.2,0.21-0.55,0.64-1.06c0.45-0.53,0.81-1.18,1.06-1.94
		c0.28-0.84,0.47-1.79,0.56-2.85c0.09-1.08,0.15-2.5,0.18-4.25l-0.02-3.81c0-0.57,0.11-1.01,0.34-1.3c0.23-0.28,0.75-0.49,1.58-0.64
		c0.91-0.16,1.62-0.31,2.14-0.44c0.39-0.09,0.61-0.15,0.66-0.16c-0.09,0.03,0.19-0.05,0.86-0.22c0.36-0.11,0.57-0.16,0.64-0.16
		c0.6,0,0.9,0.32,0.9,0.96c0,0.33-0.25,0.56-0.74,0.68c-1.7,0.41-3.03,0.69-4.01,0.84c-0.59,0.08-0.88,0.54-0.88,1.38v2.43h5.61
		c0.49,0,0.74,0.27,0.74,0.8c0,0.52-0.25,0.78-0.74,0.78h-1.34v9.14c0,0.65-0.27,0.98-0.82,0.98S191.32,84.33,191.32,83.68z"/>
	<path class="st0" d="M215.59,83.36c0,0.56-0.27,0.84-0.82,0.84c-1,0-2.31-0.33-3.93-0.98c-0.76-0.31-1.42-0.65-1.98-1.03
		s-1.09-0.81-1.58-1.29l-0.18,3.03c-0.03,0.27-0.1,0.46-0.22,0.59s-0.31,0.19-0.56,0.19c-0.52,0-0.78-0.26-0.78-0.78v-2.95
		c-0.86,0.72-2.11,1.45-3.77,2.19c-1.7,0.75-2.95,1.12-3.77,1.12c-0.48,0-0.72-0.27-0.72-0.82c0-0.42,0.43-0.7,1.3-0.86
		c1.2-0.23,2.28-0.53,3.22-0.92s1.81-0.87,2.62-1.44h-6.13c-0.48,0-0.72-0.22-0.72-0.66c0-0.44,0.24-0.66,0.72-0.66h7.26v-1h-0.46
		c-0.92,0-1.38-0.47-1.38-1.4v-4.11c0-0.92,0.43-1.38,1.3-1.38h0.24l0.24-0.76c0.16-0.49,0.44-0.74,0.84-0.74
		c0.52,0,0.78,0.2,0.78,0.6c0,0.13-0.14,0.43-0.42,0.9h1.14c0.87,0,1.3,0.46,1.3,1.38v4.11c0,0.45-0.12,0.8-0.35,1.04
		c-0.23,0.24-0.58,0.36-1.03,0.36h-0.64v1h7.48c0.48,0,0.72,0.22,0.72,0.66c0,0.44-0.24,0.66-0.72,0.66h-6.47
		c0.98,0.68,1.99,1.22,3.04,1.6c1.05,0.39,2.2,0.63,3.44,0.74C215.25,82.63,215.59,82.89,215.59,83.36z M197.39,68.5
		c0-0.45,0.26-0.68,0.78-0.68h3.99V67.1c0-0.47,0.26-0.7,0.78-0.7s0.78,0.23,0.78,0.7v0.72h5.25V67.1c0-0.24,0.06-0.42,0.19-0.53
		s0.32-0.17,0.59-0.17c0.51,0,0.76,0.23,0.76,0.7v0.72h4.15c0.53,0,0.8,0.23,0.8,0.68s-0.27,0.68-0.8,0.68h-4.15v0.68
		c0,0.48-0.25,0.72-0.76,0.72c-0.52,0-0.78-0.24-0.78-0.72v-0.68h-5.25v0.68c0,0.48-0.26,0.72-0.78,0.72s-0.78-0.24-0.78-0.72v-0.68
		h-3.99C197.65,69.19,197.39,68.96,197.39,68.5z M198.99,76.5l1-1.48c-0.48-0.52-1.08-1.05-1.8-1.58c-0.25-0.19-0.38-0.4-0.38-0.64
		c0-0.43,0.22-0.64,0.66-0.64c0.11,0,0.3,0.08,0.58,0.24c0.21-0.45,0.39-0.85,0.52-1.2l0.26-0.6c0.19-0.41,0.43-0.62,0.74-0.62
		c0.24,0,0.42,0.06,0.55,0.17s0.19,0.28,0.19,0.49c0,0.47-0.45,1.33-1.34,2.59l0.74,0.66l0.6-1.02c0.29-0.49,0.51-0.83,0.66-1
		c0.15-0.17,0.29-0.26,0.44-0.26c0.46,0,0.68,0.23,0.68,0.68c0,0.16-0.06,0.33-0.18,0.52c-1.02,1.63-1.83,2.82-2.45,3.57l1.54-0.2
		l-0.16-0.34c-0.13-0.29-0.2-0.5-0.2-0.62c0-0.17,0.05-0.3,0.16-0.39c0.11-0.09,0.25-0.13,0.42-0.13c0.16,0,0.29,0.05,0.4,0.15
		c0.11,0.1,0.21,0.28,0.32,0.53c0.53,1.16,0.8,1.85,0.8,2.07c0,0.2-0.06,0.35-0.17,0.46c-0.11,0.11-0.27,0.16-0.47,0.16
		c-0.29,0-0.55-0.28-0.76-0.84l-2.69,0.54l-1.2,0.18c-0.25,0.04-0.45-0.01-0.58-0.14c-0.13-0.13-0.2-0.32-0.2-0.56
		c0-0.39,0.31-0.62,0.94-0.68L198.99,76.5z M205.03,73.72h2.75v-0.96c0-0.33-0.17-0.5-0.5-0.5h-1.76c-0.15,0-0.26,0.04-0.35,0.13
		c-0.09,0.09-0.13,0.21-0.13,0.37V73.72z M205.51,76.64h1.76c0.33,0,0.5-0.16,0.5-0.48v-1.2h-2.75v1.2
		C205.03,76.48,205.19,76.64,205.51,76.64z M209.12,73.03c0-0.2,0.06-0.36,0.18-0.47c0.12-0.11,0.28-0.17,0.48-0.17
		c0.13,0,0.29,0.06,0.46,0.18c0.27-0.6,0.51-1.18,0.72-1.74c0.19-0.45,0.43-0.68,0.74-0.68c0.49,0,0.74,0.23,0.74,0.68
		c0,0.47-0.43,1.31-1.28,2.53l0.3,0.22l0.4,0.38l0.76-1.4c0.28-0.51,0.57-0.76,0.86-0.76c0.21,0,0.38,0.06,0.5,0.17
		s0.18,0.28,0.18,0.49c0,0.49-0.89,1.88-2.67,4.17l1.98-0.32l-0.1-0.18c-0.17-0.31-0.26-0.55-0.26-0.72c0-0.19,0.05-0.33,0.16-0.42
		c0.11-0.09,0.25-0.14,0.44-0.14c0.29,0,0.52,0.21,0.68,0.62c0.27,0.63,0.47,1.12,0.61,1.47c0.14,0.35,0.21,0.57,0.21,0.65
		c0,0.2-0.06,0.35-0.18,0.46c-0.12,0.11-0.28,0.16-0.48,0.16c-0.15,0-0.29-0.07-0.42-0.22c-0.13-0.15-0.24-0.35-0.32-0.6l-3.43,0.66
		c-0.28,0.05-0.5,0.08-0.64,0.08c-0.47,0-0.7-0.23-0.7-0.7c0-0.41,0.33-0.64,0.98-0.68l1.08-1.62c-0.44-0.48-0.98-0.96-1.6-1.44
		C209.25,73.45,209.12,73.23,209.12,73.03z"/>
	<path class="st0" d="M235.34,76.01c0.23,0.18,0.34,0.42,0.34,0.71c0,0.36-0.15,0.72-0.46,1.06c-0.71,0.82-1.36,1.46-1.96,1.95
		c-1.63,1.34-3.54,2.44-5.73,3.31c-2.04,0.8-4.65,1.34-7.82,1.6l-0.66,0.04c-0.31,0.01-0.55-0.05-0.72-0.2
		c-0.17-0.15-0.26-0.37-0.26-0.66c0-0.52,0.37-0.79,1.12-0.82c2.77-0.11,5.35-0.59,7.76-1.44c-0.49-0.41-1.23-0.98-2.21-1.7
		c-0.31-0.21-0.46-0.42-0.46-0.62c0-0.24,0.07-0.42,0.2-0.55s0.29-0.19,0.48-0.19c0.35,0,0.81,0.19,1.39,0.56
		c0.58,0.37,1.33,0.96,2.26,1.74c1.4-0.71,2.59-1.45,3.55-2.23l0.56-0.44c0.52-0.4,0.78-0.64,0.78-0.72c0-0.11-0.07-0.16-0.22-0.16
		h-7.38c-0.92,0.56-2.01,1.11-3.27,1.64c-1.22,0.52-2.03,0.78-2.45,0.78c-0.25,0-0.44-0.07-0.57-0.21
		c-0.13-0.14-0.19-0.34-0.19-0.59c0-0.37,0.34-0.66,1.02-0.84c2.81-0.79,5.05-1.97,6.74-3.55c0.2-0.19,0.37-0.33,0.52-0.42
		c0.15-0.09,0.31-0.16,0.48-0.2c0.2-0.05,0.39-0.01,0.57,0.13c0.18,0.14,0.27,0.3,0.27,0.49c0,0.17-0.09,0.37-0.28,0.59
		c-0.19,0.22-0.46,0.44-0.82,0.67h6.47C234.8,75.74,235.11,75.83,235.34,76.01z M218.18,75.4c0-0.27,0.14-0.48,0.41-0.63
		c0.27-0.15,0.71-0.26,1.29-0.33c1.64-0.2,3.46-0.63,5.45-1.28l-1.66-1.32c-0.19-0.15-0.31-0.26-0.38-0.34
		c-0.07-0.08-0.1-0.18-0.1-0.3c0-0.19,0.06-0.33,0.19-0.44c0.13-0.11,0.27-0.16,0.43-0.16c0.27,0,0.62,0.13,1.05,0.4
		c0.43,0.27,1.05,0.7,1.83,1.3l0.24,0.24c0.59-0.24,1.4-0.67,2.45-1.29c1.04-0.62,1.72-1.1,2.03-1.43c0.04-0.04,0.06-0.07,0.06-0.1
		c0-0.08-0.06-0.12-0.18-0.12h-7.36c-0.8,0.47-1.66,0.92-2.59,1.34c-0.88,0.4-1.46,0.6-1.74,0.6c-0.54,0-0.8-0.27-0.8-0.82
		c0-0.17,0.08-0.35,0.24-0.54c0.07-0.07,0.31-0.17,0.74-0.32l0.58-0.2c1.6-0.57,3.08-1.44,4.43-2.61c0.16-0.13,0.31-0.27,0.46-0.42
		l0.48-0.44c0.15-0.12,0.31-0.18,0.48-0.18c0.23,0,0.43,0.07,0.61,0.22c0.18,0.15,0.27,0.31,0.27,0.5c0,0.21-0.09,0.42-0.26,0.62
		c-0.17,0.2-0.45,0.45-0.82,0.74h6.62c0.44,0,0.79,0.09,1.05,0.28c0.26,0.19,0.39,0.43,0.39,0.72c0,0.31-0.16,0.62-0.48,0.92
		c-0.83,0.76-1.79,1.49-2.9,2.18s-2.23,1.29-3.38,1.79c-1.78,0.79-4.22,1.51-7.34,2.17c-0.47,0.09-0.78,0.14-0.94,0.14
		C218.47,76.28,218.18,75.99,218.18,75.4z"/>
	<path class="st0" d="M238.53,83.5c0-0.2,0.11-0.38,0.33-0.54c0.22-0.16,0.56-0.32,1.03-0.48c1.39-0.47,2.41-1.28,3.07-2.45
		c0.67-1.19,1.01-2.99,1.02-5.41h-4.35c-0.67,0-1-0.26-1-0.78c0-0.53,0.33-0.8,1-0.8h15.7c0.64,0,0.96,0.26,0.96,0.78
		c0,0.53-0.32,0.8-0.96,0.8h-5.07v6.94c0,0.44,0.17,0.71,0.52,0.8c0.31,0.08,0.89,0.12,1.74,0.12c1.04,0,1.67-0.13,1.88-0.38
		c0.2-0.21,0.31-0.64,0.32-1.28c0.03-0.64,0.31-0.96,0.86-0.96c0.29,0,0.51,0.07,0.66,0.2c0.15,0.13,0.22,0.35,0.22,0.66
		c0,1.2-0.22,2.08-0.66,2.63c-0.49,0.47-1.7,0.7-3.63,0.7c-1.39,0-2.29-0.08-2.71-0.24c-0.55-0.21-0.82-0.72-0.82-1.52v-7.66h-3.07
		l-0.02,0.88c-0.04,1.82-0.35,3.4-0.92,4.75c-0.54,1.28-1.36,2.29-2.49,3.03c-1.14,0.75-2.06,1.12-2.79,1.12
		C238.81,84.4,238.53,84.1,238.53,83.5z M240.57,68.18c0-0.53,0.33-0.8,1-0.8h11.81c0.65,0,0.98,0.27,0.98,0.8
		c0,0.52-0.33,0.78-0.98,0.78h-11.81C240.91,68.96,240.57,68.7,240.57,68.18z"/>
	<path class="st0" d="M259.02,83.74c0-0.31,0.07-0.52,0.2-0.64c0.13-0.12,0.37-0.21,0.7-0.26c2.63-0.39,4.86-1.11,6.7-2.17
		c-0.51-0.33-1.15-0.86-1.92-1.58c-0.78-0.72-1.42-1.41-1.95-2.07c-0.17-0.21-0.26-0.42-0.26-0.62s0.09-0.38,0.26-0.54
		c0.15-0.12,0.29-0.18,0.44-0.18c0.25,0,0.49,0.13,0.72,0.38c0.49,0.57,1.16,1.23,2,1.95c0.83,0.73,1.56,1.31,2.17,1.73
		c1.2-0.91,2.13-1.75,2.79-2.53c0.44-0.51,0.86-1.11,1.24-1.8c0.04-0.07,0.06-0.13,0.06-0.2c0-0.08-0.03-0.14-0.1-0.19
		c-0.07-0.05-0.15-0.07-0.26-0.07h-9.66c-0.67,0-1-0.27-1-0.8c0-0.55,0.33-0.82,1-0.82h4.95v-2.49h-6.64
		c-0.68,0-1.02-0.28-1.02-0.84c0-0.53,0.34-0.8,1.02-0.8h6.64v-1.96c0-0.55,0.29-0.82,0.88-0.82c0.58,0,0.86,0.27,0.86,0.82v1.96
		h6.68c0.69,0,1.04,0.27,1.04,0.82s-0.35,0.82-1.04,0.82h-6.68v2.49h3.93c1.11,0,1.66,0.37,1.66,1.1c0,0.66-0.45,1.58-1.34,2.79
		c-0.88,1.19-2.06,2.34-3.55,3.45c2.33,1.15,4.52,1.83,6.6,2.04c0.61,0.07,0.92,0.36,0.92,0.88c0,0.66-0.33,0.98-1,0.98
		c-0.44,0-0.97-0.08-1.57-0.24c-0.61-0.16-1.37-0.39-2.28-0.7c-1.66-0.58-3.03-1.2-4.13-1.88c-1.28,0.79-2.79,1.46-4.51,2.02
		c-1.5,0.49-2.7,0.74-3.61,0.74C259.33,84.52,259.02,84.26,259.02,83.74z"/>
	<path class="st0" d="M285.6,75.22c0.12,0.13,0.18,0.33,0.18,0.58c0,0.35-0.21,0.6-0.64,0.76l-1.46,0.54v5.39
		c0,0.72-0.19,1.27-0.58,1.64c-0.32,0.31-0.82,0.46-1.48,0.46h-1c-0.52,0-0.78-0.28-0.78-0.84c0-0.55,0.26-0.82,0.78-0.82h0.74
		c0.47,0,0.71-0.25,0.74-0.76v-4.57c-1.08,0.33-1.74,0.5-1.96,0.5c-0.5,0-0.74-0.26-0.74-0.78c0-0.41,0.19-0.69,0.58-0.82l2.13-0.54
		v-4.15h-1.72c-0.6,0-0.9-0.26-0.9-0.78c0-0.52,0.3-0.78,0.9-0.78h1.72v-2.99c0-0.61,0.27-0.92,0.8-0.92c0.52,0,0.78,0.31,0.78,0.92
		v2.99h1.18c0.61,0,0.92,0.26,0.92,0.78c0,0.52-0.31,0.78-0.92,0.78h-1.18v3.71l1.06-0.38l0.36-0.06
		C285.31,75.04,285.48,75.09,285.6,75.22z M294.88,74.22v2.23h1.48c0.62,0,0.92,0.25,0.92,0.76s-0.31,0.76-0.92,0.76h-1.48v4.65
		c0,0.63-0.19,1.14-0.56,1.52c-0.32,0.35-0.81,0.51-1.46,0.48h-1.2c-0.71,0-1.06-0.28-1.06-0.84c0-0.57,0.32-0.86,0.96-0.86h0.92
		c0.48,0,0.73-0.26,0.76-0.78v-4.17h-6.42c-0.62,0-0.92-0.25-0.92-0.76s0.31-0.76,0.92-0.76h6.42v-2.23h-6.8
		c-0.63,0-0.94-0.25-0.94-0.74c0-0.51,0.31-0.76,0.94-0.76h3.95v-2.35h-3.33c-0.61,0-0.92-0.25-0.92-0.74
		c0-0.51,0.31-0.76,0.92-0.76h3.33v-1.64c0-0.28,0.06-0.48,0.19-0.61s0.34-0.19,0.63-0.19c0.28,0,0.48,0.06,0.61,0.19
		c0.13,0.13,0.19,0.33,0.19,0.61v1.64h3.67c0.32,0,0.55,0.06,0.7,0.18c0.15,0.12,0.22,0.31,0.22,0.58c0,0.25-0.07,0.44-0.22,0.56
		c-0.15,0.12-0.38,0.18-0.7,0.18h-3.67v2.35h4.75c0.61,0,0.92,0.25,0.92,0.76c0,0.49-0.31,0.74-0.94,0.74H294.88z M289.53,79.81
		c0.53,0.65,0.8,1.12,0.8,1.38c0,0.54-0.29,0.8-0.86,0.8c-0.32,0-0.59-0.19-0.82-0.58l-0.68-1.02c-0.04-0.07-0.11-0.17-0.21-0.31
		c-0.1-0.14-0.17-0.25-0.21-0.34s-0.06-0.16-0.06-0.23c0-0.47,0.27-0.7,0.82-0.7C288.57,78.81,288.98,79.14,289.53,79.81z"/>
	<path class="st0" d="M299.91,80.73c0-0.35,0.27-0.65,0.8-0.92c1.16-0.59,2.21-1.56,3.15-2.91h-2.93c-0.55,0-0.82-0.23-0.82-0.68
		c0-0.47,0.27-0.7,0.82-0.7h2.81v-5.93h-2.19c-0.55,0-0.82-0.23-0.82-0.7c0-0.45,0.27-0.68,0.82-0.68h2.19v-0.82
		c0-0.65,0.27-0.98,0.82-0.98c0.53,0,0.8,0.33,0.8,0.98v0.82h7.4v-0.82c0-0.65,0.27-0.98,0.82-0.98c0.53,0,0.8,0.33,0.8,0.98v0.82
		h2.21c0.54,0,0.8,0.23,0.8,0.7c0,0.46-0.27,0.68-0.8,0.68h-2.21v5.93h2.85c0.52,0,0.78,0.23,0.78,0.7c0,0.23-0.06,0.39-0.19,0.5
		c-0.13,0.11-0.32,0.17-0.59,0.18h-3.09c0.94,1.26,2.08,2.2,3.45,2.83c0.43,0.2,0.64,0.48,0.64,0.84c0,0.57-0.27,0.86-0.8,0.86
		c-0.38,0-1.08-0.4-2.11-1.2c-1.07-0.84-2.05-1.95-2.95-3.33h-6.7c-0.94,1.44-1.9,2.58-2.91,3.41c-1,0.84-1.71,1.26-2.13,1.26
		C300.16,81.57,299.91,81.29,299.91,80.73z M301.19,83.32c0-0.47,0.27-0.7,0.82-0.7h6.16v-2.03h-3.49c-0.52,0-0.78-0.23-0.78-0.68
		c0-0.47,0.26-0.7,0.78-0.7h3.49v-0.96c0-0.64,0.28-0.96,0.84-0.96c0.53,0,0.8,0.32,0.8,0.96v0.96h3.55c0.54,0,0.8,0.23,0.8,0.7
		c0,0.46-0.27,0.68-0.8,0.68h-3.55v2.03h6.29c0.56,0,0.84,0.24,0.84,0.72c0,0.48-0.28,0.72-0.84,0.72h-14.09
		C301.47,84.06,301.19,83.81,301.19,83.32z M312.76,70.75v-1.16h-7.4v1.16H312.76z M312.76,73.09v-1.18h-7.4v1.18H312.76z
		 M312.76,75.52v-1.26h-7.4v1.26H312.76z"/>
	<path class="st0" d="M337.82,74.42c-0.59,0-1.67-0.48-3.25-1.44c0.01,0.04,0.02,0.11,0.02,0.2c0,0.51-0.31,0.76-0.92,0.76h-3.43
		v2.39h6.32c0.61,0,0.92,0.25,0.92,0.76c0,0.49-0.31,0.74-0.92,0.74h-6.32v4.61h7.02c0.32,0,0.55,0.06,0.7,0.18
		c0.15,0.12,0.22,0.31,0.22,0.58c0,0.25-0.07,0.44-0.22,0.56c-0.15,0.12-0.38,0.18-0.7,0.18h-15.34c-0.6,0-0.9-0.25-0.9-0.74
		c0-0.27,0.07-0.46,0.22-0.58c0.15-0.12,0.37-0.18,0.68-0.18h6.74v-4.61h-6.03c-0.62,0-0.92-0.25-0.92-0.74
		c0-0.51,0.31-0.76,0.92-0.76h6.03v-2.39h-3.17c-0.32,0-0.56-0.06-0.71-0.18c-0.15-0.12-0.23-0.31-0.23-0.58
		c0-0.07,0.01-0.15,0.04-0.26c-1.68,1.12-2.79,1.68-3.33,1.68c-0.52,0-0.78-0.28-0.78-0.84c0-0.25,0.09-0.45,0.26-0.58
		c0.12-0.08,0.34-0.2,0.66-0.36c0.17-0.07,0.41-0.18,0.7-0.34c2.61-1.32,4.68-3.01,6.23-5.05c0.28-0.39,0.52-0.67,0.72-0.84
		s0.38-0.26,0.54-0.26c0.27,0,0.48,0.07,0.63,0.2c0.15,0.13,0.23,0.31,0.23,0.54c0,0.11-0.05,0.28-0.16,0.52
		c0.91,1.02,1.84,1.85,2.79,2.51c1.79,1.22,3.31,2.02,4.57,2.42c0.71,0.21,1.06,0.55,1.06,1C338.72,74.12,338.42,74.42,337.82,74.42
		z M323.49,79.37l-0.04-0.26c-0.03-0.21,0.03-0.38,0.18-0.5c0.15-0.12,0.35-0.18,0.62-0.18c0.39,0,0.76,0.39,1.12,1.16
		c0.36,0.76,0.54,1.25,0.54,1.46c0,0.54-0.27,0.8-0.82,0.8c-0.42,0-0.72-0.28-0.9-0.84L323.49,79.37z M333.75,72.43
		c-1.71-1.16-3.15-2.38-4.33-3.67h-0.04c-1.23,1.38-2.6,2.6-4.11,3.67h0.12H333.75z M334.06,78.61c0.15-0.15,0.33-0.22,0.53-0.22
		c0.57,0,0.86,0.25,0.86,0.74c0,0.19-0.19,0.7-0.56,1.54c-0.19,0.43-0.37,0.75-0.55,0.96s-0.38,0.32-0.61,0.32
		c-0.56,0-0.84-0.26-0.84-0.78c0-0.19,0.07-0.4,0.22-0.64l0.54-1.26C333.77,78.98,333.91,78.75,334.06,78.61z"/>
</g>
<g>
	<path class="st1" d="M128.05,1.61c1.32,0,2.4,0.41,3.25,1.23c0.84,0.82,1.27,1.91,1.27,3.29c0,1.37-0.42,2.48-1.27,3.33
		c-0.85,0.84-1.93,1.27-3.25,1.27h-9.34v44.34c0,1.43-0.42,2.55-1.27,3.36c-0.85,0.82-1.95,1.23-3.33,1.23
		c-1.32,0-2.39-0.41-3.21-1.23c-0.82-0.82-1.23-1.94-1.23-3.36V10.72h-9.42c-1.37,0-2.48-0.42-3.33-1.27
		c-0.84-0.84-1.27-1.95-1.27-3.33c0-1.37,0.42-2.47,1.27-3.29c0.84-0.82,1.95-1.23,3.33-1.23H128.05z"/>
	<path class="st1" d="M139.06,55.14c0,1.43-0.41,2.53-1.23,3.33c-0.82,0.79-1.94,1.19-3.36,1.19c-1.27,0-2.34-0.4-3.21-1.19
		c-0.87-0.79-1.31-1.9-1.31-3.33v-36.1c0-1.21,0.34-2.18,1.03-2.89c0.69-0.71,1.61-1.07,2.77-1.07c2.59,0,4.09,1.21,4.51,3.64
		c1.21-1.64,2.73-2.82,4.55-3.56c1.82-0.74,3.68-1.11,5.58-1.11c1.27,0,2.56,0.13,3.88,0.4c1.32,0.27,2.57,0.66,3.76,1.19
		c1.19,0.53,2.3,1.23,3.33,2.1c1.03,0.87,1.88,1.89,2.57,3.05c1.53-2.38,3.56-4.09,6.1-5.15c2.53-1.06,5.07-1.58,7.6-1.58
		c2.27,0,4.47,0.46,6.61,1.39c2.14,0.92,4.02,2.19,5.66,3.8c1.63,1.61,2.96,3.54,3.96,5.78c1,2.24,1.5,4.69,1.5,7.32v22.8
		c0,1.43-0.41,2.53-1.23,3.33c-0.82,0.79-1.91,1.19-3.29,1.19c-1.32,0-2.4-0.4-3.25-1.19c-0.85-0.79-1.27-1.9-1.27-3.33v-22.8
		c0-1.32-0.24-2.53-0.71-3.64s-1.12-2.08-1.94-2.93c-0.82-0.84-1.76-1.5-2.81-1.98c-1.06-0.48-2.14-0.71-3.25-0.71
		c-1.16,0-2.3,0.24-3.4,0.71c-1.11,0.48-2.11,1.14-3.01,1.98c-0.9,0.85-1.62,1.82-2.18,2.93c-0.55,1.11-0.83,2.32-0.83,3.64v22.8
		c0,1.43-0.41,2.53-1.23,3.33c-0.82,0.79-1.94,1.19-3.37,1.19c-1.27,0-2.32-0.4-3.17-1.19c-0.84-0.79-1.27-1.9-1.27-3.33v-22.8
		c0-1.32-0.25-2.53-0.75-3.64c-0.5-1.11-1.16-2.08-1.98-2.93c-0.82-0.84-1.76-1.5-2.81-1.98c-1.06-0.48-2.14-0.71-3.25-0.71
		c-1.11,0-2.23,0.24-3.36,0.71c-1.14,0.48-2.14,1.14-3.01,1.98c-0.87,0.85-1.58,1.82-2.14,2.93s-0.83,2.32-0.83,3.64V55.14z"/>
	<path class="st1" d="M228.83,0.19c4.43,0,8.59,0.91,12.47,2.73c3.88,1.82,7.19,4.26,9.94,7.32c0.32,0.42,0.61,0.84,0.87,1.27
		c0.26,0.42,0.4,1,0.4,1.74c0,1.43-0.42,2.55-1.27,3.36c-0.84,0.82-1.95,1.23-3.33,1.23c-1,0-1.74-0.17-2.22-0.51
		c-0.47-0.34-0.84-0.67-1.11-0.99c-2.01-2.22-4.34-3.95-7.01-5.19c-2.67-1.24-5.58-1.86-8.75-1.86c-2.96,0-5.71,0.55-8.27,1.66
		c-2.56,1.11-4.79,2.63-6.69,4.55c-1.9,1.93-3.39,4.17-4.47,6.73c-1.08,2.56-1.62,5.29-1.62,8.19c0,2.9,0.54,5.62,1.62,8.15
		c1.08,2.53,2.57,4.75,4.47,6.65c1.9,1.9,4.13,3.4,6.69,4.51c2.56,1.11,5.32,1.66,8.27,1.66c3.17,0,6.06-0.57,8.67-1.7
		c2.61-1.13,4.92-2.81,6.93-5.03c0.42-0.53,0.91-0.96,1.46-1.31c0.55-0.34,1.2-0.51,1.94-0.51c1.37,0,2.49,0.4,3.37,1.19
		c0.87,0.79,1.31,1.82,1.31,3.09c0,1.43-0.47,2.67-1.42,3.72c-2.8,3.01-6.08,5.37-9.86,7.09c-3.77,1.71-7.9,2.57-12.39,2.57
		c-4.17,0-8.09-0.78-11.76-2.34c-3.67-1.56-6.86-3.69-9.58-6.41c-2.72-2.72-4.87-5.9-6.45-9.54c-1.58-3.64-2.38-7.57-2.38-11.8
		c0-4.17,0.79-8.09,2.38-11.76c1.58-3.67,3.73-6.87,6.45-9.62c2.72-2.74,5.91-4.91,9.58-6.49C220.74,0.98,224.66,0.19,228.83,0.19z"
		/>
	<path class="st1" d="M271.73,1.61c4.17,0,8.1,0.71,11.8,2.14c3.69,1.43,6.91,3.4,9.66,5.94c2.74,2.53,4.91,5.57,6.49,9.1
		c1.58,3.54,2.38,7.42,2.38,11.64c0,4.22-0.79,8.1-2.38,11.64c-1.58,3.54-3.75,6.57-6.49,9.1c-2.75,2.53-5.97,4.51-9.66,5.94
		c-3.7,1.43-7.63,2.14-11.8,2.14h-9.5c-1.27,0-2.34-0.41-3.21-1.23c-0.87-0.82-1.31-1.94-1.31-3.37V6.13c0-1.37,0.43-2.47,1.31-3.29
		c0.87-0.82,1.94-1.23,3.21-1.23H271.73z M266.82,50.15h4.91c2.9,0,5.65-0.49,8.23-1.46c2.59-0.98,4.84-2.34,6.77-4.08
		c1.93-1.74,3.44-3.81,4.55-6.22c1.11-2.4,1.66-5.05,1.66-7.96c0-2.85-0.55-5.49-1.66-7.92c-1.11-2.43-2.63-4.51-4.55-6.25
		c-1.93-1.74-4.18-3.1-6.77-4.08c-2.59-0.98-5.33-1.46-8.23-1.46h-4.91V50.15z"/>
	<path class="st1" d="M335.35,1.61c1.32,0,2.39,0.41,3.21,1.23c0.82,0.82,1.23,1.91,1.23,3.29c0,1.37-0.41,2.48-1.23,3.33
		c-0.82,0.84-1.89,1.27-3.21,1.27H317.3v13.3h17.34c1.37,0,2.48,0.42,3.33,1.27c0.84,0.84,1.27,1.93,1.27,3.25
		c0,1.42-0.42,2.53-1.27,3.33c-0.84,0.79-1.95,1.19-3.33,1.19H317.3v22.01c0,1.43-0.41,2.55-1.23,3.36
		c-0.82,0.82-1.94,1.23-3.36,1.23c-1.27,0-2.34-0.41-3.21-1.23c-0.87-0.82-1.31-1.94-1.31-3.36V6.13c0-1.37,0.4-2.47,1.19-3.29
		c0.79-0.82,1.93-1.23,3.4-1.23H335.35z"/>
</g>
<g>
	<path class="st2" d="M42.59,51.11c0.72,0.1,1.42,0.29,2.07,0.56c1.35-1.43,2.57-2.9,3.59-4.34c0.52,0.73,1.1,1.47,1.71,2.21
		c0.34-0.54,0.73-1.03,1.18-1.47c-1.36-1.71-2.35-3.38-2.89-4.86C47.39,45.56,45.38,48.41,42.59,51.11z"/>
	<path class="st3" d="M41.51,54.09c-2.81,0-5.1,2.28-5.1,5.1c0,2.81,2.28,5.1,5.1,5.1c2.81,0,5.1-2.28,5.1-5.1
		C46.61,56.38,44.33,54.09,41.51,54.09z"/>
	<path class="st4" d="M56.88,48.76c-2.81,0-5.1,2.28-5.1,5.1c0,2.81,2.28,5.1,5.1,5.1c2.81,0,5.1-2.28,5.1-5.1
		C61.97,51.05,59.69,48.76,56.88,48.76z"/>
	<path class="st2" d="M89.77,17.3l-1.54-1.54c-3.14-3.14-7.32-4.88-11.77-4.88c-4.45,0-8.63,1.73-11.77,4.88L48.25,32.2L31.81,15.76
		c-3.14-3.14-7.32-4.88-11.77-4.88c-4.45,0-8.63,1.73-11.77,4.88L6.74,17.3c-3.14,3.14-4.87,7.32-4.87,11.77
		c0,4.45,1.73,8.63,4.87,11.77l18.39,18.39l0.08,0.06c1.15,1.02,2.68,1.58,4.35,1.58c1.25,0,2.56-0.32,3.85-0.83
		c-0.03-0.28-0.05-0.57-0.05-0.86c0-0.69,0.09-1.35,0.25-1.99c-2.66,1.04-4.86,1.11-5.89-0.06c-1.98-2.23,0.98-8.08,6.61-13.07
		c5.63-4.99,11.8-7.23,13.77-5c0.06,0.06,0.1,0.13,0.15,0.2c0.05-0.07,0.1-0.13,0.15-0.2c1.98-2.23,8.14,0.01,13.77,5
		c5.63,4.99,8.59,10.85,6.61,13.08c-0.88,0.99-2.57,1.1-4.68,0.48c-0.42,0.81-0.98,1.54-1.64,2.16c1.5,0.66,3.02,1.09,4.48,1.09h0
		c1.67,0,3.2-0.56,4.35-1.58l0.08-0.06l18.39-18.39C96.26,34.35,96.26,23.79,89.77,17.3z"/>
	<path class="st5" d="M61.97,53.86c0-2.81-2.28-5.1-5.1-5.1c-2.81,0-5.1,2.28-5.1,5.1c0,2.81,2.28,5.1,5.1,5.1
		C59.69,58.96,61.97,56.67,61.97,53.86z"/>
	<path class="st6" d="M51.78,60.19c-0.01,0-0.02,0-0.03,0c-0.8,0-1.56,0.19-2.23,0.53c-1.68,0.83-2.83,2.56-2.83,4.57
		c0,0.07,0,0.13,0,0.2c0.1,2.72,2.34,4.9,5.09,4.9c2.81,0,5.1-2.28,5.1-5.1c0-1.3-0.48-2.48-1.28-3.38
		C54.66,60.86,53.3,60.19,51.78,60.19z"/>
	<path class="st7" d="M41.51,69.94c-2.81,0-5.1,2.28-5.1,5.1c0,2.81,2.28,5.1,5.1,5.1c2.81,0,5.1-2.28,5.1-5.1
		C46.61,72.22,44.33,69.94,41.51,69.94z"/>
	<path class="st8" d="M59.53,75.04c-2.81,0-5.1,2.28-5.1,5.1s2.28,5.1,5.1,5.1c2.81,0,5.1-2.28,5.1-5.1S62.35,75.04,59.53,75.04z"/>
</g>
</svg>
